<svg width="100%" height="100%" viewBox="0 0 114 105" fill="none" xmlns="http://www.w3.org/2000/svg">
<rect width="114" height="104" fill="white"/>
<path d="M80.3611 98.0537C80.3611 98.0537 82.3777 98.7714 87.4758 98.3097C92.5739 97.848 102.727 99.7595 102.727 99.7595L102.47 103.989H79.5078L79.765 99.238L80.3611 98.0537Z" fill="#122149"/>
<path d="M77.2695 93.2769C77.2695 93.2769 76.2504 96.7125 76.2912 97.5522C76.3321 98.3919 77.1926 99.5858 77.6204 100.227C78.0483 100.868 79.1876 100.6 79.1876 100.6C79.1876 100.6 81.1754 94.3798 80.7043 93.6167C80.2332 92.8535 77.4233 92.765 77.2695 93.2769Z" fill="#DD7C59"/>
<path d="M84.4817 38.0606L84.4072 39.5965C83.9744 38.683 83.75 37.6854 83.75 36.6754C83.75 35.6653 83.9744 34.6678 84.4072 33.7542C85.8999 30.6847 87.5319 30.2158 87.5319 30.2158L100.298 34.2231C100.298 34.2231 100.298 33.1154 100.468 34.4385C100.639 35.7615 100.769 39.2975 101.11 40.4483C101.451 41.599 102.312 45.9078 101.795 47.2284C101.278 48.549 100.939 49.2763 100.468 49.4893C99.9971 49.7022 99.9539 48.6782 99.9539 48.6782C99.9232 48.8486 99.8579 49.0109 99.762 49.1553C99.6661 49.2997 99.5417 49.4231 99.3962 49.518C98.9155 49.7859 93.2718 50.1711 93.2718 50.1711L88.4645 50.4701C88.4645 50.4701 87.9838 50.341 87.9502 49.9582C87.6064 50.4701 87.1353 50.7237 86.8781 49.872C86.6209 49.0203 86.4936 45.9078 86.4936 45.9078L84.4817 38.0606Z" fill="#122149"/>
<path d="M24.6016 47.0824L26.9523 46.1709L33.4878 47.2427C33.4878 47.2427 35.252 47.6973 35.9467 48.8361C36.6413 49.9749 37.0475 92.2659 37.0475 92.2659H25.837L24.6016 47.0824Z" fill="#2DA2DC"/>
<path d="M35.6598 94.607L35.5156 48.5264L36.9578 49.3948L37.6789 58.6392L39.7124 93.595L35.6598 94.607Z" fill="#246BB5"/>
<path d="M27.8239 93.3068C27.5836 88.6846 27.6773 66.3919 26.0813 52.5732L20.5674 95.3308C23.3243 96.5342 28.0547 97.9314 27.8239 93.3068Z" fill="#246BB5"/>
<path d="M41.5196 95.9071V103.998H28.2781L28.1513 103.441L27.9752 103.998H15.0894L16.5532 92.2539H39.8227L41.5196 95.9071Z" fill="#124B98"/>
<path d="M27.5353 96.7133V92.2969H16.9425L15.265 97.4335C15.1602 97.7544 15.3923 98.0863 15.7297 98.098L25.7326 98.4454C25.9662 98.4534 26.1991 98.4146 26.4174 98.3312C26.6356 98.2478 26.8348 98.1215 27.003 97.9599C27.1712 97.7982 27.305 97.6046 27.3964 97.3904C27.4879 97.1763 27.5351 96.946 27.5353 96.7133Z" fill="#203063"/>
<path d="M35.6621 96.6645V92.2959L41.7577 93.0136L42.7744 98.0688L37.5105 98.3894C37.2736 98.4041 37.0363 98.3704 36.813 98.2904C36.5897 98.2104 36.3852 98.0858 36.2121 97.9242C36.0389 97.7627 35.9008 97.5676 35.8063 97.3509C35.7117 97.1343 35.6626 96.9007 35.6621 96.6645Z" fill="#203063"/>
<path d="M26.9505 95.9303V80.3221L25.3497 79.7646L21.0039 97.3371H25.5371C25.9122 97.3371 26.2719 97.1889 26.5374 96.9252C26.8028 96.6614 26.9522 96.3036 26.9529 95.9303H26.9505Z" fill="#122149"/>
<path d="M17.3361 81.6143L25.3618 79.8798C25.4889 79.8487 25.6217 79.8487 25.7488 79.8798C25.8753 79.911 25.9929 79.9708 26.0925 80.0544C26.1918 80.1382 26.2699 80.2439 26.3208 80.3631C26.3718 80.4823 26.3948 80.6116 26.3881 80.7411L25.5973 95.2464C25.5862 95.4523 25.4999 95.647 25.3548 95.7941C25.2096 95.9412 25.0156 96.0306 24.809 96.0454L15.1464 96.6962C15.0218 96.7037 14.8972 96.6841 14.781 96.6388C14.6652 96.5948 14.5608 96.5252 14.4758 96.4354C14.3897 96.3455 14.3249 96.2376 14.2859 96.1196C14.2464 96.0027 14.2341 95.8783 14.2498 95.756L15.5502 84.6862C15.5614 84.5949 15.5874 84.506 15.6271 84.423L16.7472 82.0689C16.8041 81.9535 16.8868 81.8526 16.9888 81.7738C17.0909 81.695 17.2096 81.6405 17.3361 81.6143Z" fill="#E8E8E8"/>
<path d="M16.3763 81.2604L25.7985 79.1455L25.0125 95.1365C24.9991 95.4227 24.8793 95.6936 24.6762 95.8966C24.4732 96.0996 24.2015 96.2201 23.914 96.2346L14.6312 96.7131C14.5055 96.7197 14.3798 96.6991 14.2628 96.6526C14.1459 96.6061 14.0404 96.5349 13.9538 96.4439C13.8672 96.353 13.8015 96.2443 13.7611 96.1256C13.7208 96.0068 13.7069 95.8808 13.7203 95.7562L15.0278 84.2031L16.3763 81.2604Z" fill="#203063"/>
<path d="M24.8986 35.4092C24.7809 35.4427 23.3916 30.5812 25.8361 28.4711C26.0764 27.5787 27.4657 23.3992 33.4604 23.8848C37.0898 24.4925 37.9047 25.3873 38.1498 26.0763C38.8709 26.4423 40.6784 27.9902 40.5967 29.2822C40.515 30.5741 40.6376 32.5287 38.4335 33.1364C36.2293 33.744 27.7109 31.9617 27.7109 32.0837C27.7109 32.2057 27.4345 37.9571 27.4345 37.9571C27.4345 37.9571 25.6486 35.2106 24.8986 35.4092Z" fill="#122149"/>
<path d="M27.7602 31.0821C27.7337 31.0581 27.5943 35.7904 27.3035 37.2306C26.9478 36.9339 25.6714 34.6898 24.7749 35.1492C23.8783 35.6085 23.5731 36.3645 23.9024 38.044C24.2317 39.7235 25.9623 40.1542 27.003 39.2857L26.5464 46.8099C26.5464 46.8099 29.5196 49.9775 33.5169 48.4033C33.6163 48.3425 33.6984 48.2574 33.7552 48.156C33.812 48.0546 33.8417 47.9404 33.8414 47.8243C33.8421 47.7078 33.8122 47.5932 33.7548 47.4917C33.6958 47.3935 33.6132 47.3113 33.5145 47.2525C33.4039 46.3841 33.3775 44.4103 33.3775 44.4103C33.3775 44.4103 37.5093 44.7093 38.5429 40.3814C38.8409 39.08 39.0236 35.6181 38.8121 33.3214C38.7856 32.697 38.7063 32.1252 38.7063 32.1252C38.7063 32.1252 36.9637 30.8548 33.8678 31.4218C30.7719 31.9888 28.3202 31.3955 27.7241 30.7734L27.7602 31.0821Z" fill="#FAB187"/>
<path d="M24.3928 47.1731C24.4526 47.1469 24.5173 47.1338 24.5826 47.1348C24.6476 47.1346 24.7118 47.1493 24.7701 47.1779C24.8283 47.2062 24.8797 47.2464 24.9211 47.2959C24.9626 47.3453 24.993 47.403 25.0105 47.465C26.3119 52.2581 26.9587 57.2039 26.9334 62.1689C26.8877 69.6356 26.9622 77.6287 26.9502 80.3226C26.9507 80.4093 26.9264 80.4943 26.8799 80.5676C26.8335 80.641 26.767 80.6996 26.6882 80.7365C26.6129 80.7704 26.5302 80.7844 26.4479 80.7772C26.36 80.7664 26.2768 80.7316 26.2075 80.6767C26.1498 80.6288 26.0921 80.5786 26.0392 80.526C25.9591 80.4422 25.9151 80.3306 25.9167 80.215C25.917 80.1456 25.9023 80.0771 25.8734 80.014C25.8451 79.9508 25.8023 79.8951 25.7484 79.8513C25.6953 79.8061 25.6317 79.7748 25.5633 79.7604C25.4953 79.7448 25.4246 79.7448 25.3566 79.7604L17.0449 81.5595C16.9731 81.5774 16.8979 81.5774 16.8261 81.5595C16.7543 81.5395 16.6883 81.5026 16.6339 81.4518C16.5785 81.4017 16.5372 81.3383 16.5137 81.2676C16.4893 81.1977 16.4827 81.1229 16.4944 81.0499L17.1987 76.3727C17.2083 76.3229 17.2083 76.2718 17.1987 76.222L16.0329 69.7768C16.0165 69.6811 15.9713 69.5927 15.9031 69.5232C15.833 69.4563 15.7442 69.4121 15.6484 69.3964C15.5519 69.382 15.4533 69.3988 15.3671 69.4442C15.2817 69.4898 15.2128 69.561 15.17 69.6476L13.2784 73.2889C13.2481 73.3468 13.2302 73.4103 13.2255 73.4755C13.2227 73.5407 13.2333 73.6059 13.2568 73.6669L18.6409 87.3468C18.68 87.4475 18.6824 87.5586 18.6477 87.6609C18.613 87.7632 18.5434 87.8501 18.451 87.9066L12.8914 91.256C12.8334 91.2906 12.7687 91.3126 12.7015 91.3206C12.6342 91.3275 12.5663 91.3201 12.502 91.2991C12.4387 91.2771 12.3811 91.2411 12.3338 91.1938C12.2844 91.1482 12.2465 91.0917 12.2232 91.0287L5.0772 72.7721C5.0772 72.7721 4.65176 72.1788 5.79829 70.0687C6.94482 67.9585 14.8215 52.4819 14.8215 52.4819C14.8215 52.4819 15.5835 50.5895 17.5953 49.9411C19.225 49.41 23.0491 47.7664 24.3928 47.1731Z" fill="#122149"/>
<path d="M33.5129 47.2873C33.5129 47.2873 35.6257 47.8304 35.8853 49.2395C36.1257 50.5697 36.1617 92.399 36.1665 97.1767C36.1664 97.2306 36.1787 97.2838 36.2026 97.3322C36.227 97.3803 36.2604 97.4234 36.3011 97.459C36.3436 97.4927 36.3927 97.5172 36.4453 97.5308C36.4974 97.5439 36.5519 97.5439 36.604 97.5308L42.0122 96.5235C42.0798 96.5098 42.1398 96.4714 42.1804 96.4159C42.2192 96.3601 42.2355 96.2917 42.2261 96.2245L39.2888 77.0037C39.2864 76.9814 39.2864 76.959 39.2888 76.9367L39.9691 70.4771C39.9728 70.4205 39.9967 70.3671 40.0364 70.3264C40.0751 70.2855 40.1254 70.2571 40.1806 70.2451C40.2357 70.2333 40.2932 70.24 40.344 70.2642C40.3961 70.2886 40.439 70.3288 40.4666 70.379L43.2284 75.4773C43.2552 75.5236 43.2943 75.5617 43.3414 75.5874L55.6768 81.9393C55.7452 81.9744 55.8201 81.9955 55.8968 82.0013C55.9736 82.0072 56.0508 81.9977 56.1238 81.9734C56.1968 81.9491 56.2642 81.9104 56.322 81.8598C56.3798 81.8092 56.4269 81.7475 56.4604 81.6785L59.1717 76.0778C59.2374 75.9457 59.2491 75.7933 59.2043 75.6527C59.1595 75.5121 59.0616 75.3944 58.9313 75.3242C57.1742 74.3935 51.1531 71.1781 48.9202 69.6733C48.5156 69.4031 48.2116 69.008 48.0549 68.5488C46.9949 65.4554 42.5265 52.4143 42.2862 51.8879C42.0194 51.2898 33.4961 47.0098 33.4961 47.0098L33.5129 47.2873Z" fill="#122149"/>
<path d="M37.9819 49.5391L36.2393 68.0278" stroke="#124B98" stroke-width="0.237503" stroke-linecap="round"/>
<path d="M32.4919 34.9694C32.5011 35.1344 32.4444 35.2964 32.3341 35.4201C32.2238 35.5437 32.0689 35.6189 31.903 35.6294C31.7676 35.6226 31.6383 35.5713 31.5353 35.4835C31.4333 35.395 31.3633 35.2758 31.3358 35.1439C31.3234 35.0865 31.317 35.028 31.3165 34.9694C31.307 34.889 31.3144 34.8076 31.3382 34.7302C31.3622 34.6502 31.4041 34.5766 31.4608 34.515C31.5164 34.4525 31.5843 34.402 31.6603 34.3667C31.7361 34.3337 31.8179 34.3166 31.9006 34.3165C31.9848 34.3151 32.0683 34.3322 32.1452 34.3665C32.222 34.4008 32.2903 34.4515 32.3453 34.515C32.4011 34.5772 32.4429 34.6506 32.4679 34.7302C32.4914 34.8076 32.4996 34.8888 32.4919 34.9694Z" fill="#1C2B31"/>
<path d="M36.6309 35.457C36.7514 35.4701 36.8731 35.4464 36.9798 35.3892C37.0864 35.332 37.1732 35.2439 37.2285 35.1366C37.2837 35.0293 37.305 34.9078 37.2894 34.7883C37.2737 34.6687 37.222 34.5566 37.141 34.467C37.06 34.3773 36.9535 34.3142 36.8356 34.286C36.7178 34.2578 36.5941 34.2659 36.481 34.3092C36.3679 34.3525 36.2706 34.4289 36.2021 34.5284C36.1336 34.6279 36.0971 34.7457 36.0973 34.8663C36.0901 35.0148 36.1421 35.1602 36.242 35.2708C36.342 35.3814 36.4817 35.4483 36.6309 35.457Z" fill="#1C2B31"/>
<path d="M34.6558 35.3047C34.8472 36.0024 35.1801 36.6538 35.634 37.2186C36.3215 37.977 35.2711 38.7354 35.2711 38.7354" stroke="#122149" stroke-width="0.232606" stroke-miterlimit="10" stroke-linecap="round"/>
<path d="M26.8504 37.5228C26.8745 37.6017 26.8504 39.1161 26.8504 39.1161C26.8504 39.1161 24.4877 39.542 24.3963 37.4414C24.3338 35.7117 26.5115 36.2452 26.8504 37.5228Z" fill="#F18B6B"/>
<path d="M32.1836 39.9092C32.5929 40.2357 33.0624 40.4794 33.5657 40.6266C34.0682 40.7701 34.5943 40.8132 35.1136 40.7534" stroke="#122149" stroke-width="0.232606" stroke-miterlimit="10" stroke-linecap="round"/>
<path d="M24.4831 37.8394C24.4831 37.8394 24.4182 36.8637 24.935 36.5504C25.4517 36.2371 26.0815 36.5504 26.0815 36.5504" stroke="#122149" stroke-width="0.232606" stroke-miterlimit="10" stroke-linecap="round"/>
<path d="M28.7842 41.1719C28.7842 41.1719 29.974 43.7174 33.3511 44.3921C33.3727 45.251 33.3943 45.9017 33.3943 45.9017C33.3943 45.9017 29.4572 45.5141 28.7842 41.1719Z" fill="#F18B6B"/>
<path d="M40.063 69.458L41.9859 53.4287" stroke="#203063" stroke-width="0.350133" stroke-miterlimit="10" stroke-linecap="round"/>
<path d="M11.6484 89.5708L18.0421 85.8242" stroke="#124B98" stroke-width="0.350133" stroke-miterlimit="10"/>
<path d="M56.187 81.8744L57.6676 82.4223C57.7366 82.4493 57.8134 82.4484 57.8817 82.4198C57.9499 82.3912 58.0042 82.3372 58.033 82.2692L60.3886 76.9365C60.4192 76.8657 60.4205 76.7857 60.3921 76.714C60.3637 76.6423 60.308 76.5847 60.2371 76.5537L59.0041 76.0273L56.187 81.8744Z" fill="#2DA2DC"/>
<path d="M20.2315 60.1309L16.1016 68.9043L16.8361 73.291L19.2412 62.0639" fill="#203063"/>
<path d="M40.1523 69.7195L40.996 62.5996L41.5128 71.9301L40.1523 69.7195Z" fill="#203063" stroke="#203063" stroke-width="0.232606"/>
<path d="M30.292 33.2143C30.6155 32.9017 31.0298 32.6986 31.476 32.6337C31.9222 32.5689 32.3775 32.6457 32.7773 32.8532" stroke="#122149" stroke-width="0.350133" stroke-miterlimit="10" stroke-linecap="round"/>
<path d="M35.5156 32.7821C35.5156 32.7821 37.066 32.3516 37.6356 33.2819" stroke="#122149" stroke-width="0.350133" stroke-miterlimit="10" stroke-linecap="round"/>
<path d="M57.9655 82.2874C57.939 82.3448 62.292 85.6798 62.6814 85.9406C62.9914 86.1392 63.8351 85.0052 64.2125 84.4453C64.2343 84.414 64.2483 84.3779 64.2533 84.3401C64.2578 84.3022 64.2537 84.2637 64.2413 84.2276C64.2286 84.1912 64.2071 84.1583 64.1788 84.1319C64.1518 84.1042 64.1178 84.0844 64.0803 84.0745C63.2891 83.8376 62.5827 83.3801 62.0444 82.7563C62.019 82.7279 61.9867 82.7065 61.9507 82.6941C61.9149 82.6795 61.8762 82.6738 61.8377 82.6773C61.4363 82.6773 60.8162 81.7969 60.5469 81.3806C60.53 81.3533 60.5179 81.3234 60.5109 81.2921C60.5049 81.2605 60.5049 81.228 60.5109 81.1964C60.5175 81.1646 60.5306 81.1345 60.5494 81.1079C60.5683 81.0815 60.5919 81.0588 60.6191 81.0409L63.8207 79.0217C63.8492 79.0031 63.881 78.9901 63.9144 78.9834C63.947 78.9774 63.9804 78.9774 64.013 78.9834C64.0463 78.9919 64.0775 79.0074 64.1043 79.0289C64.1308 79.0492 64.1522 79.0754 64.1668 79.1054C64.3807 79.5026 64.8206 80.2825 65.1283 80.4237C65.3927 80.5505 65.9287 80.493 66.2724 80.4237C66.309 80.4162 66.3439 80.4024 66.3757 80.383C66.4069 80.3613 66.4324 80.3326 66.4503 80.2992C66.4671 80.2665 66.4769 80.2307 66.4791 80.194C66.4811 80.1571 66.4745 80.1202 66.4599 80.0863L65.0706 76.7728C65.0517 76.7286 65.0199 76.6911 64.9792 76.6651C64.9402 76.6368 64.893 76.6217 64.8446 76.6221L60.6118 76.7297C60.5647 76.7301 60.5188 76.7443 60.4796 76.7704C60.4415 76.7958 60.4115 76.8315 60.3931 76.8733L57.9655 82.2874Z" fill="#FAB187"/>
<mask id="mask0" style="mask-type:alpha" maskUnits="userSpaceOnUse" x="57" y="76" width="10" height="10">
<path d="M57.9655 82.2874C57.939 82.3448 62.292 85.6798 62.6814 85.9406C62.9914 86.1392 63.8351 85.0052 64.2125 84.4453C64.2343 84.414 64.2483 84.3779 64.2533 84.3401C64.2578 84.3022 64.2537 84.2637 64.2413 84.2276C64.2286 84.1912 64.2071 84.1583 64.1788 84.1319C64.1518 84.1042 64.1178 84.0844 64.0803 84.0745C63.2891 83.8376 62.5827 83.3801 62.0444 82.7563C62.019 82.7279 61.9867 82.7065 61.9507 82.6941C61.9149 82.6795 61.8762 82.6738 61.8377 82.6773C61.4363 82.6773 60.8162 81.7969 60.5469 81.3806C60.53 81.3533 60.5179 81.3234 60.5109 81.2921C60.5049 81.2605 60.5049 81.228 60.5109 81.1964C60.5175 81.1646 60.5306 81.1345 60.5494 81.1079C60.5683 81.0815 60.5919 81.0588 60.6191 81.0409L63.8207 79.0217C63.8492 79.0031 63.881 78.9901 63.9144 78.9834C63.947 78.9774 63.9804 78.9774 64.013 78.9834C64.0463 78.9919 64.0775 79.0074 64.1043 79.0289C64.1308 79.0492 64.1522 79.0754 64.1668 79.1054C64.3807 79.5026 64.8206 80.2825 65.1283 80.4237C65.3927 80.5505 65.9287 80.493 66.2724 80.4237C66.309 80.4162 66.3439 80.4024 66.3757 80.383C66.4069 80.3613 66.4324 80.3326 66.4503 80.2992C66.4671 80.2665 66.4769 80.2307 66.4791 80.194C66.4811 80.1571 66.4745 80.1202 66.4599 80.0863L65.0706 76.7728C65.0517 76.7286 65.0199 76.6911 64.9792 76.6651C64.9402 76.6368 64.893 76.6217 64.8446 76.6221L60.6118 76.7297C60.5647 76.7301 60.5188 76.7443 60.4796 76.7704C60.4415 76.7958 60.4115 76.8315 60.3931 76.8733L57.9655 82.2874Z" fill="#FAB187"/>
</mask>
<g mask="url(#mask0)">
<path d="M58.342 82.9577L60.4283 76.7637L56.4575 82.6514L58.342 82.9577Z" fill="#F18B6B"/>
</g>
<path d="M65.1053 76.9102C65.1053 76.9102 68.4536 78.5681 69.3501 78.8241C70.1406 79.0043 70.9444 79.1204 71.7537 79.171L71.9436 83.6353H70.8908L67.1965 85.0372C67.1965 85.0372 66.0499 82.4558 65.8048 82.4941C65.6204 82.5632 65.4618 82.687 65.3505 82.8487C65.2391 83.0105 65.1804 83.2024 65.1822 83.3984C65.1829 83.5287 65.2107 83.6574 65.2639 83.7764C64.8024 84.0683 64.5428 84.3099 63.9419 84.0516C63.341 83.7932 62.1729 83.3889 61.8051 82.9463C61.4374 82.5037 60.3341 81.7166 60.4062 81.1902C60.4783 80.6639 64.0429 78.8935 64.0429 78.8935C64.0429 78.8935 64.6438 80.0255 65.1053 80.2862C65.5668 80.547 66.5595 80.2739 66.3792 79.9414C66.1989 79.6088 65.1053 76.9102 65.1053 76.9102Z" fill="#DD7C59"/>
<mask id="mask1" style="mask-type:alpha" maskUnits="userSpaceOnUse" x="60" y="76" width="12" height="10">
<path d="M65.1053 76.9102C65.1053 76.9102 68.4536 78.5681 69.3501 78.8241C70.1406 79.0043 71.1581 79.1197 71.9675 79.1703L71.9436 83.6353H70.8908L67.1965 85.0372C67.1965 85.0372 66.0499 82.4558 65.8048 82.4941C65.6204 82.5632 65.4618 82.687 65.3505 82.8487C65.2391 83.0105 65.1804 83.2024 65.1822 83.3984C65.1829 83.5287 65.2107 83.6574 65.2639 83.7764C64.8024 84.0683 64.5428 84.3099 63.9419 84.0516C63.341 83.7932 62.1729 83.3889 61.8051 82.9463C61.4374 82.5037 60.3341 81.7166 60.4062 81.1902C60.4783 80.6639 64.0429 78.8935 64.0429 78.8935C64.0429 78.8935 64.7207 80.0255 65.1822 80.2862C65.6437 80.547 66.5595 80.2739 66.3792 79.9414C66.1989 79.6088 65.1053 76.9102 65.1053 76.9102Z" fill="#DD7C59"/>
</mask>
<g mask="url(#mask1)">
<path d="M70.77 85.5075L71.7844 78.7178L72.5054 84.9381L70.77 85.5075Z" fill="#BC5637"/>
</g>
<path d="M67.5179 84.8488C67.5179 84.8488 66.1574 82.1047 65.5036 82.1143C64.8498 82.1239 64.7825 82.9588 64.9652 83.3918C64.7056 83.3918 63.9461 83.411 63.8139 84.0856C63.8139 84.411 63.6745 84.4038 63.6745 84.4038C63.6745 84.4038 63.0976 83.8368 62.85 84.2938C62.6146 84.8115 62.5613 85.393 62.6986 85.9446C63.0784 86.1096 63.7009 86.4948 64.3811 85.9589C64.8979 86.0977 65.7969 85.8608 65.9843 85.7843C66.1718 85.7077 67.0948 85.8704 67.5179 84.8488Z" fill="#FAB187"/>
<path d="M18.1629 89.9836C18.2478 89.9599 18.3376 89.9599 18.4225 89.9836C19.0811 90.1678 22.0592 91.0099 22.3741 91.1798C22.7274 91.3688 24.0037 94.5053 23.9749 94.668C23.946 94.8307 23.5182 95.5077 23.3788 95.29C23.025 94.9219 22.6493 94.5751 22.2539 94.2517C22.1856 94.1955 22.1018 94.1613 22.0135 94.1536C21.9477 94.1469 21.8813 94.1545 21.8188 94.1759C21.7562 94.1973 21.6991 94.2319 21.6513 94.2774C21.6036 94.3229 21.5663 94.3782 21.5421 94.4394C21.5179 94.5006 21.5073 94.5664 21.5111 94.6321C21.5688 95.1919 21.677 95.79 21.8813 95.9407L22.0375 96.0556C22.0953 96.1012 22.1407 96.1604 22.1697 96.2278C22.1983 96.2959 22.2106 96.3696 22.2058 96.4432C22.1998 96.5164 22.1759 96.587 22.1361 96.6489C22.0973 96.7118 22.0437 96.7644 21.9799 96.802L19.2349 98.3164C19.1618 98.3575 19.0783 98.3766 18.9946 98.3715C18.6917 98.3475 17.9778 98.1968 17.3721 97.3451C16.5837 96.2374 14.8555 92.888 14.656 91.9932C14.4902 91.1894 17.5043 90.1917 18.1629 89.9836Z" fill="#FAB187"/>
<mask id="mask2" style="mask-type:alpha" maskUnits="userSpaceOnUse" x="14" y="89" width="10" height="10">
<path d="M18.1629 89.9836C18.2478 89.9599 18.3376 89.9599 18.4225 89.9836C19.0811 90.1678 22.0592 91.0099 22.3741 91.1798C22.7274 91.3688 24.0037 94.5053 23.9749 94.668C23.946 94.8307 23.5182 95.5077 23.3788 95.29C23.025 94.9219 22.6493 94.5751 22.2539 94.2517C22.1856 94.1955 22.1018 94.1613 22.0135 94.1536C21.9477 94.1469 21.8813 94.1545 21.8188 94.1759C21.7562 94.1973 21.6991 94.2319 21.6513 94.2774C21.6036 94.3229 21.5663 94.3782 21.5421 94.4394C21.5179 94.5006 21.5073 94.5664 21.5111 94.6321C21.5688 95.1919 21.677 95.79 21.8813 95.9407L22.0375 96.0556C22.0953 96.1012 22.1407 96.1604 22.1697 96.2278C22.1983 96.2959 22.2106 96.3696 22.2058 96.4432C22.1998 96.5164 22.1759 96.587 22.1361 96.6489C22.0973 96.7118 22.0437 96.7644 21.9799 96.802L19.2349 98.3164C19.1618 98.3575 19.0783 98.3766 18.9946 98.3715C18.6917 98.3475 17.9778 98.1968 17.3721 97.3451C16.5837 96.2374 14.8555 92.888 14.656 91.9932C14.4902 91.1894 17.5043 90.1917 18.1629 89.9836Z" fill="#FAB187"/>
</mask>
<g mask="url(#mask2)">
<path d="M10.8756 92.8468C10.7626 93.2439 13.8273 95.4785 15.6252 92.3492C16.3703 91.0477 17.9014 90.1696 17.9014 90.1696L16.8943 88.916L10.8756 92.8468Z" fill="#F18B6B"/>
</g>
<path d="M13.5898 90.8426L14.0249 91.9001C14.0436 91.9444 14.0715 91.9843 14.1067 92.0173C14.1419 92.0502 14.1836 92.0755 14.2292 92.0914C14.274 92.1065 14.3215 92.1122 14.3686 92.1082C14.4169 92.1038 14.4636 92.0891 14.5056 92.0651L18.2961 89.9407L18.6855 89.7134C18.7582 89.6722 18.813 89.6057 18.8394 89.5268C18.8699 89.4499 18.8699 89.3644 18.8394 89.2875L18.2745 88.0195L13.5898 90.8426Z" fill="#2DA2DC"/>
<path d="M13.0352 103.988H106.368" stroke="#494949" stroke-width="1.35891" stroke-linecap="round"/>
<path d="M28.1143 102.837L30.0948 101.213" stroke="#203063" stroke-width="0.296267" stroke-linecap="round"/>
<path d="M53.8667 80.8934L57.1164 74.4219" stroke="#124B98" stroke-width="0.237503" stroke-linecap="round"/>
<path d="M63.2751 83.8669C62.8353 84.1516 62.1622 84.9842 62.965 86.0321M65.0202 83.4482L66.1619 85.6253L65.0202 83.4482ZM63.8544 84.0176C63.9281 84.6735 64.1185 85.3111 64.4168 85.9005L63.8544 84.0176Z" stroke="#DD7C59" stroke-width="0.296267" stroke-linecap="round"/>
<path d="M21.7275 48.3838L26.9482 68.028" stroke="#124B98" stroke-width="0.237503" stroke-linecap="round"/>
<path d="M20.3633 96.5039C20.7277 96.8065 21.1947 96.9588 21.6685 96.9296" stroke="#DD7C59" stroke-width="0.244848" stroke-linecap="round"/>
<path d="M19.499 97.2012C19.499 97.2012 20.0374 97.5934 20.434 97.5432" stroke="#DD7C59" stroke-width="0.244848" stroke-linecap="round"/>
<path d="M18.5361 97.7061C18.8163 97.922 19.1624 98.036 19.5168 98.0289" stroke="#DD7C59" stroke-width="0.244848" stroke-linecap="round"/>
<path d="M88.246 34.2227C88.246 34.2227 85.0324 37.7635 84.4747 38.0505C84.2608 39.4166 84.3473 45.8547 86.7029 47.8165C87.9456 48.838 89.0585 49.2663 89.7026 49.3069V51.7807L87.1956 53.2903L87.561 57.2379C87.561 57.2379 92.0988 60.1237 93.8383 56.2215C96.6217 52.5539 96.3237 51.9989 96.3237 51.9989L95.6564 51.4888L95.3127 47.1394C95.3127 47.1394 96.2741 45.6489 96.2237 44.7948C97.1995 45.436 97.9254 44.8379 98.399 43.6871C98.8725 42.5364 98.4831 41.1296 97.7115 41.1703C96.94 41.2109 96.178 42.5029 96.178 42.5029L96.3054 39.4764C96.3054 39.4764 90.6497 37.2515 88.246 34.2227Z" fill="#DD7C59"/>
<path d="M88.1219 25.5171L86.5234 30.8259C86.5234 30.8259 92.1095 37.3597 100.803 35.2376L103.659 30.9743L88.1795 25.2324L88.1219 25.5171Z" fill="#203063"/>
<path d="M83.7461 23.0816L94.9806 31.0986C95.4915 31.5253 96.1434 31.7478 96.8098 31.723C98.0116 31.723 108.862 31.4383 108.862 31.4383C108.862 31.4383 109.547 31.3259 107.9 29.9048C106.254 28.4837 99.4466 23.0816 99.4466 23.0816C99.4466 23.0816 98.1342 22.3997 96.9901 22.3423C95.8459 22.2849 87.5679 22.0026 84.7123 22.3423C83.7461 22.4571 83.7461 23.0816 83.7461 23.0816Z" fill="#122149"/>
<path d="M105.771 34.2228C104.723 34.3401 104.704 39.979 104.915 40.7039C105.127 41.4288 106.357 41.0461 106.456 40.8762C106.554 40.7063 106.155 34.1822 105.771 34.2228Z" fill="#203063"/>
<path d="M106.278 31.5059L105.632 34.7356" stroke="#152148" stroke-width="0.244848"/>
<path d="M96.2545 51.791C96.2545 51.791 88.2889 63.5929 86.8323 69.4591C86.8323 72.287 85.8901 78.1413 85.8901 78.1413C85.8901 78.1413 84.9454 99.642 85.032 101.214C85.032 102.027 85.3757 102.121 86.0607 102.027C86.7458 101.934 97.0261 101.678 99.8527 101.592C101.997 101.678 103.699 101.592 103.699 101.592C103.902 101.453 104.059 101.258 104.151 101.03C104.243 100.802 104.264 100.552 104.213 100.312C104.042 99.4602 102.158 84.0649 102.158 83.4477C102.158 82.8304 103.927 74.2775 104.242 72.287C104.557 70.2965 105.554 59.4659 104.242 57.8463C102.929 56.2266 97.3746 52.4729 96.2545 51.791Z" fill="#25A1DB"/>
<mask id="mask3" style="mask-type:alpha" maskUnits="userSpaceOnUse" x="85" y="51" width="20" height="52">
<path d="M96.2545 51.791C96.2545 51.791 88.2889 63.5929 86.8323 69.4591C86.8323 72.287 85.8901 78.1413 85.8901 78.1413C85.8901 78.1413 84.9454 99.642 85.032 101.214C85.032 102.027 85.3757 102.121 86.0607 102.027C86.7458 101.934 97.0261 101.678 99.8527 101.592C101.997 101.678 103.699 101.592 103.699 101.592C103.902 101.453 104.059 101.258 104.151 101.03C104.243 100.802 104.264 100.552 104.213 100.312C104.042 99.4602 102.158 84.0649 102.158 83.4477C102.158 82.8304 103.927 74.2775 104.242 72.287C104.557 70.2965 105.554 59.4659 104.242 57.8463C102.929 56.2266 97.3746 52.4729 96.2545 51.791Z" fill="#25A1DB"/>
</mask>
<g mask="url(#mask3)">
<path d="M99.9847 53.0312C99.778 53.158 89.19 64.8331 86.8345 69.4624C87.8608 62.7516 94.716 50.6436 94.716 50.6436L99.9847 53.0312Z" fill="#246BB5"/>
</g>
<path d="M88.8942 52.2158C88.8942 52.2158 83.4236 55.2853 81.7578 59.1228C80.8541 62.6061 80.1594 68.9174 80.2916 71.5634C80.4238 74.2094 80.008 79.7599 80.008 79.7599L78.9672 86.0257L76.3232 93.1431C76.3232 93.1431 79.9479 93.5546 80.02 93.9901C79.4095 95.6145 78.7245 100.478 78.7245 100.478L81.0488 101.036C81.1414 101.058 81.2377 101.061 81.3317 101.045C81.4256 101.029 81.5153 100.995 81.5953 100.943C81.6752 100.891 81.7436 100.824 81.7964 100.744C81.8491 100.665 81.8851 100.577 81.9021 100.483C82.5294 97.0021 85.2046 82.1691 85.058 82.437C84.9114 82.705 88.8942 52.2158 88.8942 52.2158Z" fill="#25A1DB"/>
<mask id="mask4" style="mask-type:alpha" maskUnits="userSpaceOnUse" x="76" y="52" width="13" height="50">
<path d="M88.8942 52.2158C88.8942 52.2158 83.4236 55.2853 81.7578 59.1228C80.8541 62.6061 80.1594 68.9174 80.2916 71.5634C80.4238 74.2094 80.008 79.7599 80.008 79.7599L78.9672 86.0257L76.7837 91.9035C76.5496 92.5338 76.969 93.2184 77.6336 93.3204C78.6794 93.4809 79.9772 93.7313 80.02 93.9901C79.4095 95.6145 78.7245 100.478 78.7245 100.478L81.0488 101.036C81.1414 101.058 81.2377 101.061 81.3317 101.045C81.4256 101.029 81.5153 100.995 81.5953 100.943C81.6752 100.891 81.7436 100.824 81.7964 100.744C81.8491 100.665 81.8851 100.577 81.9021 100.483C82.5294 97.0021 85.2046 82.1691 85.058 82.437C84.9114 82.705 88.8942 52.2158 88.8942 52.2158Z" fill="#25A1DB"/>
</mask>
<g mask="url(#mask4)">
<path d="M86.4546 52.3873C86.4546 52.3873 84.7408 66.9261 86.5267 69.1008C86.5912 69.4255 86.6928 69.7418 86.8296 70.0434L89.2813 51.5332L86.4546 52.3873Z" fill="#246BB5"/>
</g>
<path d="M91.3213 92.1465V93.7638C91.3206 93.8758 91.3617 93.9841 91.4367 94.0677C91.472 94.1072 91.5153 94.1389 91.5638 94.1608C91.6122 94.1826 91.6647 94.1941 91.7179 94.1945H98.4481C98.5003 94.1939 98.5519 94.1825 98.5995 94.161C98.6474 94.1381 98.6906 94.1064 98.7269 94.0677C98.7635 94.0262 98.792 93.9784 98.811 93.9265C98.8312 93.8747 98.841 93.8194 98.8398 93.7638V92.3834C98.8416 92.2739 98.8031 92.1676 98.7317 92.0843C98.6975 92.0457 98.6558 92.0144 98.6091 91.9922C98.5624 91.97 98.5117 91.9574 98.4601 91.9551L91.7299 91.7159C91.6765 91.7148 91.6234 91.7249 91.5742 91.7455C91.5249 91.7661 91.4805 91.7968 91.4439 91.8355C91.4049 91.8761 91.3747 91.9241 91.3549 91.9767C91.3326 92.0305 91.3212 92.0883 91.3213 92.1465Z" fill="#246BB5"/>
<path d="M79.9966 93.7243L81.7104 84.7383" stroke="#246BB5" stroke-width="0.330545" stroke-miterlimit="10" stroke-linecap="round"/>
<path d="M81.3242 77.5165L81.7425 63.1045" stroke="#246BB5" stroke-width="0.330545" stroke-miterlimit="10" stroke-linecap="round"/>
<path d="M89.7031 49.3169C89.7031 49.3169 91.2294 49.9725 94.544 47.8408C93.5441 49.6591 89.7031 51.2787 89.7031 51.2787V49.3169Z" fill="#BC5637"/>
<path d="M96.6836 43.4334C96.6836 43.4334 96.7052 41.663 98.0104 42.3664C98.3541 42.8185 97.9239 44.7971 96.6836 44.5411V43.4334Z" fill="#BC5637"/>
<path d="M87.2566 42.1104C87.2566 42.1104 86.6341 42.5887 86.7639 43.1985C86.7962 43.3662 86.892 43.5151 87.0316 43.6144C87.1713 43.7137 87.3439 43.7557 87.5138 43.7318" stroke="#122149" stroke-width="0.217915" stroke-miterlimit="10" stroke-linecap="round"/>
<path d="M90.0854 40.1165C90.0854 40.1165 90.6204 38.8581 91.7909 40.0443" stroke="#122149" stroke-width="0.217915" stroke-miterlimit="10" stroke-linecap="round"/>
<path d="M85.4536 40.5265C85.4536 40.5265 85.8069 39.3307 86.9487 40.3639" stroke="#122149" stroke-width="0.217915" stroke-miterlimit="10" stroke-linecap="round"/>
<path d="M85.0664 38.3905C85.0664 38.3905 85.8043 37.3693 86.7489 37.6874" stroke="#122149" stroke-width="0.367273" stroke-miterlimit="10" stroke-linecap="round"/>
<path d="M90.1133 37.5383C90.1133 37.5383 91.2959 37.1126 92.154 37.8372" stroke="#122149" stroke-width="0.367273" stroke-miterlimit="10" stroke-linecap="round"/>
<path d="M91.0681 45.1176C91.0619 45.1839 91.044 45.2487 91.0152 45.309C90.9493 45.5036 90.8689 45.6931 90.7749 45.876C90.6218 46.1528 90.401 46.3868 90.1329 46.5562C89.8649 46.7256 89.5582 46.8249 89.2413 46.8449C88.9519 46.8681 88.662 46.8066 88.4073 46.6679C87.7439 46.321 87.3064 45.5745 87.4987 45.218C87.5182 45.179 87.5461 45.1447 87.5804 45.1176C88.6533 44.8198 89.7697 44.7082 90.8806 44.7874C91.0489 44.8089 91.0849 44.9692 91.0681 45.1176Z" fill="#76292A"/>
<path d="M91.0674 45.1174C90.5121 45.2035 87.7263 45.6244 87.6302 45.5168C87.5667 45.4262 87.5203 45.3249 87.4932 45.2179C87.5127 45.1788 87.5406 45.1445 87.5749 45.1174C88.6478 44.8198 89.7641 44.7082 90.8751 44.7874C91.0481 44.8089 91.0842 44.9691 91.0674 45.1174Z" fill="#E8E8E8"/>
<path d="M90.7655 45.8758C90.6125 46.1525 90.3917 46.3864 90.1236 46.5557C89.8556 46.725 89.5489 46.8243 89.232 46.8443C88.9426 46.8676 88.6527 46.806 88.3979 46.6673C88.6744 46.2823 89.3834 45.5792 90.7655 45.8758Z" fill="#A74249"/>
<path d="M48.341 22.104C54.4735 22.104 59.4448 17.1559 59.4448 11.052C59.4448 4.94815 54.4735 0 48.341 0C42.2086 0 37.2373 4.94815 37.2373 11.052C37.2373 17.1559 42.2086 22.104 48.341 22.104Z" fill="#EAFCFF"/>
<path d="M53.424 9.42507L49.8491 9.42519C49.8004 9.42878 49.7534 9.44465 49.7125 9.47133C49.6716 9.498 49.638 9.53458 49.615 9.57765L48.5489 10.7252C48.5173 10.7852 48.5083 10.8543 48.5234 10.92C48.5386 10.9858 48.577 11.0437 48.6315 11.0834L49.7361 11.9356C49.7862 11.9736 49.8484 11.9922 49.9114 11.9882L53.424 12.025" stroke="#00A5EC" stroke-width="0.443567" stroke-miterlimit="10" stroke-linecap="round"/>
<path d="M44.5849 7.32426L48.5908 5.21523C48.6524 5.18235 48.7204 5.16379 48.7899 5.16092C48.8593 5.15805 48.9284 5.17096 48.9919 5.19867C49.4191 5.37949 49.8225 5.61163 50.1931 5.89002C50.6035 6.17466 50.917 6.57803 51.0921 7.04696" stroke="#236BB5" stroke-width="0.443567" stroke-miterlimit="10" stroke-linecap="round"/>
<path d="M52.4826 6.78496C52.4826 6.78496 51.3944 5.38223 51.2731 5.34524C51.1518 5.30825 50.2961 5.98121 50.2961 5.98121" stroke="#236BB5" stroke-width="0.443567" stroke-miterlimit="10" stroke-linecap="round"/>
<path d="M50.1752 11.1933C50.4003 11.2943 50.6655 11.1945 50.7674 10.9705C50.8693 10.7465 50.7695 10.4831 50.5443 10.3821C50.3192 10.2811 50.0541 10.3808 49.9522 10.6048C49.8502 10.8288 49.9501 11.0923 50.1752 11.1933Z" stroke="#00A5EC" stroke-width="0.432895" stroke-miterlimit="10" stroke-linecap="round"/>
<path d="M43.3304 8.07354L43.1992 13.9223C43.197 14.0224 43.2147 14.1219 43.2513 14.2148C43.288 14.3078 43.3429 14.3924 43.4128 14.4637C43.4827 14.535 43.5663 14.5915 43.6585 14.6301C43.7508 14.6686 43.85 14.6883 43.9502 14.6881L52.7533 14.6389C52.9495 14.636 53.1373 14.5566 53.2767 14.4177C53.416 14.2788 53.4959 14.0914 53.4992 13.8954C53.5303 12.796 53.5811 10.6743 53.5712 9.06588C53.5698 8.52767 53.5586 8.04969 53.5407 7.68324C53.5302 7.48863 53.4443 7.30625 53.3012 7.17463C53.1581 7.04301 52.969 6.97248 52.7739 6.97794C50.8857 7.02982 45.9083 7.24703 44.0462 7.32531C43.8542 7.3352 43.6729 7.41838 43.5397 7.55763C43.4065 7.69689 43.3316 7.88159 43.3304 8.07354V8.07354Z" stroke="#236BB5" stroke-width="0.443567" stroke-miterlimit="10" stroke-linecap="round"/>
<path d="M64.6902 45.7212C70.8226 45.7212 75.7939 40.7731 75.7939 34.6692C75.7939 28.5653 70.8226 23.6172 64.6902 23.6172C58.5577 23.6172 53.5864 28.5653 53.5864 34.6692C53.5864 40.7731 58.5577 45.7212 64.6902 45.7212Z" fill="#EAFCFF"/>
<path d="M59.2058 36.4491L59.2789 30.3115C59.2826 30.1879 59.4867 29.8794 59.4867 29.8794C59.4867 29.8794 59.6438 29.7318 59.7677 29.7227L69.184 29.5958C69.2489 29.5919 69.3139 29.6011 69.3752 29.623C69.4364 29.6448 69.4926 29.6788 69.5403 29.7228C69.5881 29.7668 69.6263 29.82 69.6528 29.8792C69.6794 29.9383 69.6936 30.0022 69.6946 30.0669L69.7459 36.4491L59.2058 36.4491Z" stroke="#236BB5" stroke-width="0.443567" stroke-miterlimit="10" stroke-linecap="round"/>
<path d="M57.935 37.0925L58.3219 37.9999C58.3474 38.0558 58.3883 38.1033 58.4398 38.1368C58.4913 38.1703 58.5513 38.1884 58.6127 38.1889L70.6265 38.1498C70.6829 38.1495 70.7381 38.1343 70.7865 38.1057C70.8349 38.0771 70.8748 38.0362 70.9021 37.9871L71.4389 36.9981C71.4652 36.95 71.4783 36.8958 71.4769 36.8409C71.4756 36.786 71.4598 36.7324 71.4311 36.6854C71.4025 36.6384 71.362 36.5997 71.3138 36.5732C71.2655 36.5467 71.2112 36.5333 71.1562 36.5343L58.221 36.6621C58.1701 36.6632 58.1203 36.6765 58.0758 36.7009C58.0313 36.7253 57.9934 36.7601 57.9653 36.8023C57.9372 36.8446 57.9198 36.893 57.9145 36.9435C57.9093 36.994 57.9163 37.0451 57.935 37.0925Z" stroke="#236BB5" stroke-width="0.443567" stroke-miterlimit="10" stroke-linecap="round"/>
<path d="M60.2499 36.2958L60.25 31.2039C60.2546 31.0946 60.3005 30.991 60.3785 30.9135C60.4566 30.8361 60.5612 30.7906 60.6714 30.786L68.1403 30.6913C68.2086 30.6874 68.2769 30.6974 68.3411 30.7206C68.4053 30.7438 68.464 30.7798 68.5137 30.8263C68.5633 30.8728 68.6029 30.9289 68.6299 30.9911C68.6569 31.0533 68.6709 31.1204 68.6708 31.1881L68.6957 36.3993" stroke="#236BB5" stroke-width="0.443567" stroke-miterlimit="10" stroke-linecap="round"/>
<path d="M63.3507 33.0732C63.3507 33.0732 64.5743 32.0864 65.9558 32.8482" stroke="#00A5EC" stroke-width="0.357869" stroke-miterlimit="10" stroke-linecap="round"/>
<path d="M63.785 33.5637C64.0583 33.3475 64.3882 33.2196 64.7362 33.1952C65.0843 33.1707 65.4359 33.2506 65.7501 33.4255" stroke="#00A5EC" stroke-width="0.322545" stroke-miterlimit="10" stroke-linecap="round"/>
<path d="M64.1366 34.067C64.3207 33.9276 64.5409 33.843 64.7715 33.823C65.0022 33.8031 65.2337 33.8486 65.4391 33.9544" stroke="#00A5EC" stroke-width="0.322545" stroke-miterlimit="10" stroke-linecap="round"/>
<path d="M64.8549 34.666C64.9367 34.6364 64.9788 34.5463 64.9488 34.4648C64.9189 34.3833 64.8282 34.3414 64.7464 34.3711C64.6645 34.4007 64.6224 34.4908 64.6524 34.5723C64.6823 34.6538 64.773 34.6957 64.8549 34.666Z" fill="#00A5EC" stroke="#00A5EC" stroke-width="0.181605" stroke-miterlimit="10" stroke-linecap="round"/>
<path d="M71.8406 79.1322L71.7348 83.6372C71.7318 83.7186 71.7449 83.7999 71.7733 83.8764C71.8039 83.9552 71.8505 84.0269 71.9103 84.0869C71.968 84.1484 72.0385 84.1966 72.117 84.2281C72.1929 84.2606 72.2747 84.2769 72.3573 84.2759L91.7522 85.2186L86.9858 77.1943L72.4126 78.5604C72.2626 78.5728 72.1222 78.6387 72.0171 78.746C71.912 78.8532 71.8493 78.9946 71.8406 79.1442V79.1322Z" fill="#25A1DB"/>
<path d="M99.9404 56.5449C99.9404 56.5449 97.9502 57.277 96.9214 58.868C96.2797 60.2293 89.4005 76.3495 89.4005 76.3495C89.4005 76.3495 88.9414 77.0552 87.6603 77.3064L80.1177 77.816" stroke="#246BB5" stroke-width="0.367273" stroke-miterlimit="10" stroke-linecap="round"/>
<path d="M101.767 68.7305C101.767 68.7305 96.2125 81.4558 95.1693 83.4463C94.542 84.4224 93.4555 84.8818 92.7657 84.8339C91.3091 85.0205 79.1924 84.5349 79.1924 84.5349" stroke="#246BB5" stroke-width="0.367273" stroke-miterlimit="10" stroke-linecap="round"/>
<path d="M73.9399 72.8331C73.9399 72.8331 72.7122 72.6017 73.2091 71.2193C73.2091 71.2193 72.7971 72.4203 71.7067 72.0197C71.7067 72.0197 72.5302 72.4196 72.3537 73.5823C72.3639 73.5857 72.4625 72.5915 73.9399 72.8331Z" fill="#FBB043"/>
<path d="M70.0322 69.1616C70.0322 69.1616 68.2112 68.8093 68.9245 66.8301C68.9245 66.8301 68.3339 68.5499 66.7135 67.9565C66.7135 67.9565 67.9389 68.5446 67.6963 70.2131C67.7114 70.2182 67.8413 68.7906 70.0322 69.1616Z" fill="#FBB043"/>
</svg>
