<svg width="100%" height="100%" viewBox="0 0 115 104" fill="none" xmlns="http://www.w3.org/2000/svg">
<rect x="0.000976562" width="114" height="104" fill="white"/>
<path d="M114.002 20.1201C114.002 26.2918 108.809 31.2949 102.404 31.2949C95.9983 31.2949 90.8057 26.2918 90.8057 20.1201C90.8057 13.9484 95.9983 8.94531 102.404 8.94531C108.809 8.94531 114.002 13.9484 114.002 20.1201Z" fill="#EAFCFF"/>
<path d="M57.3171 83.4678C57.3171 83.4678 54.4474 95.2587 56.1587 97.4403C56.1587 97.4403 56.9485 98.687 59.6601 98.8168C62.3981 98.9467 66.5314 98.8168 66.5314 98.8168L66.0838 85.4416L57.3171 83.4678Z" fill="#FAB187"/>
<path d="M103.04 82.6621C103.04 82.6621 105.909 95.1283 104.198 97.4138C104.198 97.4138 103.408 98.7383 100.696 98.8682C97.9585 98.998 93.8252 98.8682 93.8252 98.8682L94.2727 84.7398L103.04 82.6621Z" fill="#FAB187"/>
<path d="M91.9628 50.1468C91.331 53.523 88.4353 52.0686 88.4353 52.0686C87.3296 58.2238 83.8547 59.6003 83.8547 59.6003L83.9074 63.1064L86.4609 64.1193C86.4609 64.1193 86.4346 64.1453 86.4346 64.1712C84.5655 67.4956 80.9063 68.4305 80.9063 68.4305C74.1671 69.2876 72.7192 64.0414 72.7192 64.0414L75.3781 63.0804V60.1457C70.2973 58.094 69.3496 52.3283 69.3496 52.3283C67.5332 53.4191 65.8747 51.705 66.138 49.1079C66.217 48.2768 66.6118 47.8873 67.1383 47.7314C68.2177 47.3938 69.7972 48.147 69.7972 48.147C69.7972 48.147 70.9291 44.4331 70.6922 40.0439C70.6922 40.0439 78.0632 43.3942 86.3029 40.6153C86.3029 40.6153 88.4854 44.273 88.2748 48.5843C88.2748 48.5843 88.4879 48.4067 88.8564 48.147C89.6638 47.4961 89.9884 47.4717 90.8571 47.5496C91.6732 47.6795 92.305 48.3547 91.9628 50.1468Z" fill="#FAB187"/>
<path d="M90.6932 47.6794C89.8244 47.6015 89.1399 47.9391 88.6924 48.2767C89.1136 47.8871 89.9824 47.5755 90.6932 47.6794Z" fill="#FAB186"/>
<path d="M90.1214 38.9266C91.6483 42.2249 90.7269 47.5231 90.7269 47.5231C90.7532 47.3932 90.7269 47.549 90.7269 47.549C89.9898 47.4192 89.1211 47.8866 88.6999 48.2762C88.3313 48.5359 88.147 48.7697 88.147 48.7697C88.3576 44.4584 86.1463 40.7445 86.1463 40.7445C77.9329 43.4975 70.6672 40.8225 70.6672 40.8225C70.9305 45.2116 69.7459 48.6658 69.7459 48.6658C69.7459 48.6658 68.1137 47.3672 67.0344 47.7049C66.8764 46.64 66.4552 43.6793 66.6395 41.5497C66.8501 38.9525 68.7484 37.3794 68.7484 37.3794C68.9978 29.4629 82.4591 31.0699 86.1945 31.6692C86.5322 31.7234 86.5994 32.157 86.3043 32.3299C86.3043 32.3299 89.2 32.0701 91.2534 33.5765C93.3067 35.0828 90.1214 38.9266 90.1214 38.9266Z" fill="#122048"/>
<path d="M90.6932 47.5235C89.8244 47.4456 89.1399 47.965 88.6924 48.2767C89.1136 47.8871 89.9824 47.4196 90.6932 47.5235Z" fill="#191848"/>
<path d="M74.8298 51.3648C75.2811 51.3648 75.6469 50.8776 75.6469 50.2767C75.6469 49.6757 75.2811 49.1885 74.8298 49.1885C74.3785 49.1885 74.0127 49.6757 74.0127 50.2767C74.0127 50.8776 74.3785 51.3648 74.8298 51.3648Z" fill="#122048"/>
<path d="M82.9236 51.3648C83.3748 51.3648 83.7407 50.8776 83.7407 50.2767C83.7407 49.6757 83.3748 49.1885 82.9236 49.1885C82.4723 49.1885 82.1064 49.6757 82.1064 50.2767C82.1064 50.8776 82.4723 51.3648 82.9236 51.3648Z" fill="#122048"/>
<path d="M79.0629 53.3145H79.0366C78.6943 53.2106 78.4574 53.0288 78.3784 52.7691C78.2204 52.2756 78.668 51.7043 78.6943 51.6783C78.747 51.6264 78.8259 51.6004 78.8786 51.6523C78.9313 51.7043 78.9576 51.7822 78.9049 51.8341C78.9049 51.8341 78.51 52.3276 78.6417 52.6912C78.6943 52.847 78.8523 52.9769 79.1155 53.0548C79.1945 53.0808 79.2208 53.1587 79.1945 53.2106C79.1682 53.2885 79.1155 53.3145 79.0629 53.3145Z" fill="#19223B"/>
<path d="M79.0347 57.2365C78.5082 57.2365 78.1396 57.1326 78.1133 57.1066C78.0343 57.0807 78.008 57.0028 78.0343 56.9508C78.0606 56.8989 78.1396 56.8469 78.1922 56.8729C78.2186 56.8729 79.7719 57.3404 81.3251 56.2236C81.3778 56.1717 81.4568 56.1977 81.5094 56.2496C81.5621 56.3015 81.5357 56.3795 81.4831 56.4314C80.588 57.0807 79.6929 57.2365 79.0347 57.2365Z" fill="#19223B"/>
<path d="M103.4 81.3369C103.675 82.0566 103.234 82.9027 102.519 83.1887C100.191 84.1196 96.1188 86.0643 96.1188 86.0643C96.1188 86.0643 65.5818 86.0643 65.3975 86.0643C65.1869 86.0643 56.1048 83.3892 56.1575 82.7919C56.2101 82.1945 59.1322 74.4551 61.6594 71.0269C64.1866 67.6247 72.6895 64.0146 72.6895 64.0146C72.6895 64.0146 74.1374 69.2868 80.8766 68.4038C80.8766 68.4038 84.5358 67.4429 86.4048 64.1445C87.2999 64.4562 93.4336 66.6637 96.382 68.5077C98.9264 70.1126 102.165 78.0909 103.4 81.3369Z" fill="#122048"/>
<path d="M75.376 60.145C75.376 60.145 79.5093 62.2227 83.8532 59.5996V60.7683C83.8532 60.7683 79.167 64.3524 75.376 60.9241V60.145Z" fill="#F18B6B"/>
<path d="M58.3982 93.3107C58.3193 93.3107 58.2666 93.2588 58.2666 93.1809C58.2666 93.1289 58.3193 93.051 58.3719 93.051C58.3982 93.051 58.4509 92.9991 58.5035 92.9731C59.0301 92.6355 60.6097 91.6226 64.2954 91.3369C64.3744 91.3369 64.4271 91.3889 64.4271 91.4668C64.4271 91.5447 64.3744 91.5966 64.2954 91.5966C60.6887 91.8823 59.1354 92.8692 58.6352 93.1809C58.5035 93.2848 58.4509 93.3107 58.3982 93.3107Z" fill="#F18B6B"/>
<path d="M101.728 93.3107C101.675 93.3107 101.596 93.2848 101.465 93.1809C100.965 92.8692 99.4112 91.8823 95.8045 91.5966C95.7255 91.5966 95.6729 91.5187 95.6729 91.4668C95.6729 91.3889 95.7518 91.3369 95.8045 91.3369C99.4902 91.6226 101.07 92.6355 101.596 92.9731C101.649 92.9991 101.702 93.051 101.728 93.051C101.781 93.051 101.833 93.103 101.833 93.1809C101.86 93.2588 101.781 93.3107 101.728 93.3107Z" fill="#F18B6B"/>
<path opacity="0.6" d="M99.6461 84.4551C99.6461 84.4551 100.225 89.8571 99.6461 92.1945C99.6461 92.1945 97.7506 91.3375 96.2236 91.4673L96.3026 85.9354L99.6461 84.4551Z" fill="#F18B6B"/>
<path opacity="0.6" d="M60.2389 84.0908C60.2389 84.0908 59.6597 89.8564 60.2389 92.1938C60.2389 92.1938 62.503 91.3628 64.0299 91.4926V85.6751L60.2389 84.0908Z" fill="#F18B6B"/>
<path d="M66.6611 49.6272C66.6611 49.6272 66.6611 52.0166 68.1881 51.5231C69.5307 51.1076 68.346 49.4194 68.346 49.4194C68.346 49.4194 66.7928 48.4585 66.6611 49.6272Z" fill="#F18B6B"/>
<path d="M91.172 49.4451C91.172 49.4451 91.172 52.0163 89.5398 51.4969C88.0918 51.0554 89.3818 49.2114 89.3818 49.2114C89.3818 49.2114 91.0404 48.1985 91.172 49.4451Z" fill="#F18B6B"/>
<path d="M68.8223 51.0821C68.7433 51.0821 68.6907 51.0302 68.6907 50.9523C68.6907 50.1991 68.5064 49.6797 68.1378 49.42C67.6639 49.0823 67.0058 49.2641 67.0058 49.2901C66.9268 49.3161 66.8741 49.2641 66.8478 49.2122C66.8215 49.1343 66.8741 49.0823 66.9268 49.0564C66.9531 49.0564 67.7166 48.7966 68.2958 49.2382C68.7433 49.5498 68.954 50.1472 68.954 50.9782C68.954 51.0042 68.9013 51.0821 68.8223 51.0821Z" fill="#19223B"/>
<path d="M88.6972 50.7958C88.6708 50.7958 88.6708 50.7958 88.6445 50.7958C88.5655 50.7698 88.5392 50.6919 88.5655 50.614C89.0394 49.4453 89.5659 48.822 90.1451 48.6921C90.619 48.6142 90.9349 48.8999 90.9349 48.9259C90.9876 48.9778 90.9876 49.0557 90.9349 49.1077C90.8823 49.1596 90.8033 49.1596 90.7506 49.1077C90.7506 49.1077 90.5137 48.8739 90.1978 48.9518C89.8555 49.0298 89.3553 49.3674 88.8025 50.6919C88.8025 50.7698 88.7498 50.7958 88.6972 50.7958Z" fill="#19223B"/>
<path opacity="0.59" d="M95.7236 85.9087C96.1185 85.9087 96.3292 85.9087 96.3292 85.9087C96.3292 85.9087 98.3037 84.9738 100.278 84.0907C99.2251 81.0261 96.4081 76.0137 96.4081 76.0137L95.7236 85.9087Z" fill="#203063"/>
<path d="M96.2248 84.2992C96.1722 84.2992 96.1458 84.2732 96.1195 84.2473C96.0669 84.1953 96.0932 84.1174 96.1458 84.0655C98.7259 82.2735 102.964 80.6373 103.017 80.6113C103.096 80.5853 103.149 80.6113 103.175 80.6892C103.201 80.7671 103.175 80.8191 103.096 80.845C103.043 80.871 98.8312 82.4812 96.2775 84.2473C96.2775 84.2992 96.2512 84.2992 96.2248 84.2992Z" fill="#226BB5"/>
<path d="M65.1583 75.0518H94.9055C94.9055 75.0518 96.5113 75.1816 96.4587 76.662C96.406 78.1164 96.1428 97.465 96.1428 97.465C96.1428 97.465 96.2744 98.8414 94.5896 98.9194C92.9048 98.9973 65.6848 98.9194 65.6848 98.9194C65.6848 98.9194 64.2632 98.9973 64.079 97.2312C63.8947 95.4652 64.079 76.636 64.079 76.636C64.079 76.636 64.1316 75.4673 65.1583 75.0518Z" fill="#203062"/>
<path d="M34.1416 51.4199L42.8821 51.7576V67.0027L41.0655 66.3534L34.1416 51.4199Z" fill="#CCE6EF"/>
<path d="M31.4466 15.4875C31.4466 15.4875 28.9759 14.5909 25.852 25.0135C23.4381 33.1106 19.8597 35.2679 17.7014 44.3457C16.7926 48.1281 18.099 51.8264 18.099 51.8264L37.6661 50.5376L52.8404 53.3811C52.8404 53.3811 56.0769 51.5675 54.0524 41.712C52.3201 33.2787 52.3201 25.5458 52.3201 25.5458C52.3201 25.5458 51.3829 16.1879 46.2426 13.7504C41.074 11.2568 33.463 10.6964 31.4466 15.4875Z" fill="#122048"/>
<path d="M50.3098 24.173C50.3098 24.173 51.4174 34.0352 47.8107 38.7983C44.7436 42.8328 41.7901 42.6087 41.7901 42.6087V44.9902L42.7273 45.4665L43.0396 53.1713C43.0396 53.1713 40.1997 56.3093 35.2015 53.1713L30.6576 44.3457C30.6576 44.3457 31.538 45.3824 31.4528 40.031C31.3676 34.6797 30.97 33.8952 30.97 33.8952C30.97 33.8952 27.6757 35.9404 26.7953 31.5697C26.1137 28.2356 29.124 27.7313 30.544 28.936C30.9416 29.2722 31.3392 29.3563 31.8788 29.3003C33.1283 29.1602 35.2015 27.8153 37.2462 21.5674C37.2462 21.5674 39.1206 22.9683 45.9364 22.8562C45.9364 22.8282 48.4923 22.9963 50.3098 24.173Z" fill="#DD7C58"/>
<path d="M30.7693 44.0186L42.326 65.8604L41.9838 45.0574C41.9838 45.0574 49.0652 46.8754 51.8293 50.4075C54.5934 53.9396 59.095 75.5217 59.095 75.5217L57.0417 80.2485L49.4074 77.8591C49.4074 77.8591 50.0129 94.5327 51.1449 98.8179H17.6858C17.6858 98.8179 23.2667 87.001 23.0035 84.5337C22.7402 82.0924 22.1874 81.1575 22.1874 81.1575C22.1874 81.1575 17.8964 80.8978 17.3436 79.755C16.8171 78.6642 13.7634 58.978 17.4226 51.4983C17.6069 51.1087 17.9228 50.7971 18.3176 50.5633C20.4763 49.3946 28.1895 45.0574 30.7693 44.0186Z" fill="#23A1DB"/>
<mask id="mask0" style="mask-type:alpha" maskUnits="userSpaceOnUse" x="15" y="44" width="45" height="55">
<path d="M30.7693 44.0186L42.326 65.8604L41.9838 45.0574C41.9838 45.0574 49.0652 46.8754 51.8293 50.4075C54.5934 53.9396 59.095 75.5217 59.095 75.5217L57.0417 80.2485L49.4074 77.8591C49.4074 77.8591 50.0129 94.5327 51.1449 98.8179H17.6858C17.6858 98.8179 23.2667 87.001 23.0035 84.5337C22.7402 82.0924 22.1874 81.1575 22.1874 81.1575C22.1874 81.1575 17.8964 80.8978 17.3436 79.755C16.8171 78.6642 13.7634 58.978 17.4226 51.4983C17.6069 51.1087 17.9228 50.7971 18.3176 50.5633C20.4763 49.3946 28.1895 45.0574 30.7693 44.0186Z" fill="#002966"/>
</mask>
<g mask="url(#mask0)">
<path d="M42.7712 68.7769L24.8916 45.7429C25.0444 44.9843 25.5518 43.2302 26.3586 42.2833C27.3672 41.0997 47.7225 43.74 48.2726 45.7429C48.7127 47.3453 44.7884 61.7666 42.7712 68.7769Z" fill="#246BB5"/>
</g>
<path d="M38.8811 32.7187C39.3046 32.7187 39.6479 32.1919 39.6479 31.542C39.6479 30.8921 39.3046 30.3652 38.8811 30.3652C38.4576 30.3652 38.1143 30.8921 38.1143 31.542C38.1143 32.1919 38.4576 32.7187 38.8811 32.7187Z" fill="#122048"/>
<path d="M47.3811 32.7187C47.8046 32.7187 48.1479 32.1919 48.1479 31.542C48.1479 30.8921 47.8046 30.3652 47.3811 30.3652C46.9576 30.3652 46.6143 30.8921 46.6143 31.542C46.6143 32.1919 46.9576 32.7187 47.3811 32.7187Z" fill="#122048"/>
<path d="M43.0961 35.1914C43.0393 35.1914 42.9541 35.1354 42.9541 35.0794C42.9541 34.9953 42.9825 34.9393 43.0677 34.9113C43.4653 34.8552 43.7209 34.6871 43.8061 34.463C44.0049 33.9867 43.5221 33.2862 43.5221 33.2862C43.4653 33.2302 43.4937 33.1461 43.5505 33.0901C43.6073 33.0341 43.6925 33.0621 43.7493 33.1181C43.7777 33.1462 44.3174 33.9587 44.0617 34.575C43.9481 34.9113 43.6357 35.1074 43.0961 35.1914C43.1245 35.1914 43.0961 35.1914 43.0961 35.1914Z" fill="#122048"/>
<path d="M39.2516 36.7608C39.3883 36.7383 42.9567 36.9139 44.3665 36.9845C44.6417 36.9982 44.8074 37.2778 44.6621 37.5119C44.1886 38.2753 43.0846 39.6145 41.2965 39.3104C38.8256 38.8901 39.2516 36.7608 39.2516 36.7608Z" fill="#C4425E"/>
<path d="M44.223 37.6015C44.2833 37.5617 44.358 37.4095 44.4267 37.2245C44.4714 37.1041 44.3843 36.9785 44.256 36.9717C42.7617 36.8934 40.0008 36.7642 39.3773 36.758C39.3008 36.7573 39.2432 36.8088 39.2359 36.885C39.2279 36.9684 39.2225 37.0868 39.2347 37.218C39.2422 37.2978 39.3035 37.3603 39.3824 37.3745C40.6866 37.6088 44.0584 37.7097 44.223 37.6015Z" fill="#F0EFEF"/>
<path d="M39.3057 37.6289C39.4477 38.2733 39.9305 39.0578 41.3221 39.31C41.8902 39.394 42.373 39.338 42.799 39.1699C42.0038 38.0492 40.2429 37.713 39.3057 37.6289Z" fill="#A42B4B"/>
<path d="M41.7455 42.5499C41.7455 42.5499 38.56 42.7058 35.0322 39.3555C35.0322 39.3555 36.4275 43.433 41.7455 43.5109V42.5499Z" fill="#C46243"/>
<path d="M29.9781 30.6454C29.7509 30.2251 29.2965 30.001 28.8136 30.001C28.2456 30.029 27.4788 30.3372 27.3936 30.7575C27.2232 31.5139 27.9332 32.8868 28.8136 33.0269C29.6089 33.167 30.6313 32.6626 30.6313 32.2424C30.6313 31.5419 30.2905 31.1497 29.9781 30.6454Z" fill="#C46243"/>
<path d="M30.4572 31.6821C30.4004 31.6821 30.3436 31.6541 30.3152 31.57C30.1164 30.9256 29.804 30.4773 29.378 30.2812C29.0087 30.0851 28.5827 30.0851 28.0715 30.2532C28.0431 30.2532 28.0147 30.2812 28.0147 30.2812C27.9295 30.3092 27.8727 30.2532 27.8443 30.1691C27.8159 30.0851 27.8727 30.029 27.9579 30.001H27.9863C28.5543 29.8049 29.0656 29.8329 29.4916 30.029C29.9744 30.2812 30.3436 30.7575 30.5708 31.486C30.5992 31.57 30.5424 31.626 30.4856 31.6541C30.4856 31.6821 30.4572 31.6821 30.4572 31.6821Z" fill="#122048"/>
<path d="M48.6203 76.2744H48.594C48.515 76.2485 48.4887 76.1965 48.4887 76.1186L48.515 75.9887C46.2511 75.1577 25.5333 71.8853 25.3227 71.8593C25.2701 71.8593 25.2174 71.8074 25.2174 71.7295C25.2174 71.6775 24.9015 66.691 25.0068 63.8082C25.1121 60.9514 25.428 57.3414 25.428 57.3154C25.428 57.2375 25.507 57.1855 25.5597 57.1855C25.6386 57.1855 25.6913 57.2635 25.6913 57.3154C25.6913 57.3414 25.3491 60.9514 25.2701 63.8082C25.1911 66.4313 25.428 70.8464 25.4807 71.5996C27.2971 71.8853 47.0672 75.0018 48.7256 75.781C48.7783 75.8069 48.8046 75.8589 48.8046 75.9368L48.752 76.1705C48.7256 76.2485 48.673 76.2744 48.6203 76.2744Z" fill="#246BB5"/>
<path d="M43.0938 74.8462C43.0411 74.8462 42.9621 74.7943 42.9621 74.7423C42.9621 74.7164 42.6199 72.1712 42.5146 70.2493C42.4883 69.7558 42.4093 68.9507 42.3566 68.1716C42.225 66.5354 42.1987 66.1978 42.225 66.1199C42.2513 66.042 42.3303 66.016 42.383 66.042C42.4356 66.0679 42.4883 66.1199 42.4619 66.1978C42.4619 66.3276 42.5409 67.2886 42.5936 68.1456C42.6462 68.9248 42.7252 69.7299 42.7515 70.2233C42.8568 72.1452 43.1991 74.6904 43.1991 74.7164C43.2254 74.7683 43.1728 74.8202 43.0938 74.8462Z" fill="#226BB5"/>
<path d="M45.1157 84.3258L22.3709 81.3651C22.292 81.3651 22.2393 81.2872 22.2656 81.2093C22.2656 81.1314 22.3446 81.0794 22.4236 81.1054L45.0631 84.0401C45.1947 83.9103 45.5369 83.5207 45.8528 82.9753C45.8791 82.9234 45.9581 82.8974 46.0371 82.9234C46.0897 82.9493 46.1161 83.0272 46.0897 83.1052C45.6949 83.8064 45.2473 84.2479 45.221 84.2739C45.1947 84.2998 45.1684 84.3258 45.1157 84.3258Z" fill="#226BB5"/>
<path d="M46.1249 98.9993C46.0723 98.9993 46.0196 98.9473 45.9933 98.8954C44.8876 94.3245 44.1768 84.1957 44.1768 84.0918C44.1768 84.0139 44.2294 83.9619 44.3084 83.9619C44.3874 83.9619 44.44 84.0139 44.44 84.0918C44.44 84.1957 45.1508 94.2985 46.2566 98.8435C46.2829 98.9214 46.2302 98.9733 46.1513 98.9993C46.1249 98.9993 46.1249 98.9993 46.1249 98.9993Z" fill="#226BB5"/>
<path d="M43.9112 71.7027C44.1291 71.7027 44.3058 71.4236 44.3058 71.0794C44.3058 70.7351 44.1291 70.4561 43.9112 70.4561C43.6933 70.4561 43.5166 70.7351 43.5166 71.0794C43.5166 71.4236 43.6933 71.7027 43.9112 71.7027Z" fill="#226BB5"/>
<path d="M45.455 87.0009C45.6728 86.9934 45.8395 86.7084 45.8274 86.3644C45.8152 86.0203 45.6288 85.7475 45.411 85.755C45.1932 85.7625 45.0265 86.0475 45.0386 86.3915C45.0508 86.7355 45.2372 87.0084 45.455 87.0009Z" fill="#226BB5"/>
<path d="M46.2988 94.7929C46.5166 94.7854 46.6833 94.5004 46.6711 94.1563C46.6589 93.8123 46.4725 93.5395 46.2547 93.547C46.0369 93.5545 45.8702 93.8394 45.8824 94.1835C45.8945 94.5275 46.081 94.8003 46.2988 94.7929Z" fill="#226BB5"/>
<path d="M50.0675 76.7417C50.0412 76.7417 50.0412 76.7417 50.0675 76.7417C49.9885 76.7417 49.9359 76.6638 49.9359 76.5859C49.9359 76.5079 51.0416 67.7037 51.0942 65.5741C51.1469 63.4444 48.8301 57.445 48.8038 57.3931C48.7775 57.3152 48.8038 57.2632 48.8828 57.2373C48.9618 57.2113 49.0144 57.2373 49.0408 57.3152C49.1461 57.5749 51.3838 63.4444 51.3575 65.6C51.3049 67.7556 50.2255 76.5599 50.1991 76.6378C50.1728 76.7157 50.1202 76.7417 50.0675 76.7417Z" fill="#226BB5"/>
<path opacity="0.59" d="M49.3838 58.5879C49.3838 58.5879 57.624 69.6516 50.2262 76.8457C50.042 77.0275 50.8054 70.4048 50.8054 70.4048C50.8054 70.4048 52.3587 64.8989 49.3838 58.5879Z" fill="#226BB5"/>
<path d="M48.618 76.3008C48.618 76.3008 54.5148 77.3916 58.5952 79.9108C62.6756 82.43 63.9918 83.287 63.9918 83.287L63.9655 84.9232L60.5432 83.4429C60.5432 83.4429 60.3326 84.6375 59.7272 84.9232C59.7272 84.9232 59.2533 85.9361 58.3846 86.1958C58.3846 86.1958 58.016 88.4553 51.1452 85.3647C51.1452 85.3647 48.1968 83.4169 46.0908 82.9234C46.1171 82.9234 48.1705 79.5212 48.618 76.3008Z" fill="#DD7C58"/>
<path opacity="0.59" d="M28.1156 72.172L25.4566 58.667C25.4566 58.667 24.8511 67.8348 25.3513 71.7305L28.1156 72.172Z" fill="#226BB5"/>
<path opacity="0.59" d="M21.8721 81.1831C21.8721 81.1831 40.6418 82.5337 46.1174 81.1572L47.1704 80.8975C47.1704 80.8975 45.8804 83.6504 45.1433 84.1958L21.8721 81.1831Z" fill="#246BB5"/>
<path opacity="0.22" d="M35.8495 52.6923L42.3259 65.2884V65.8597L35.165 52.3027L35.8495 52.6923Z" fill="#23A1DB"/>
<path d="M31.1336 44.0186L36.7511 53.9859L36.2608 53.7844L35.7705 53.5023L30.8018 44.0781L31.1336 44.0186Z" fill="#C46243"/>
<path d="M57.4903 86.9226C54.3574 86.1695 47.4861 81.3648 47.0649 81.0791C46.5384 82.1959 46.0908 82.9231 46.0908 82.9231C48.197 83.4165 51.1456 85.3644 51.1456 85.3644C54.7786 87.0005 56.5952 87.1564 57.4903 86.9226Z" fill="#C46243"/>
<path d="M60.5728 83.5991C60.5465 83.5991 60.5202 83.5991 60.5202 83.5731C59.4935 83.0017 57.4926 81.9369 57.4663 81.9109C57.4137 81.8849 57.3873 81.807 57.4136 81.7291C57.44 81.6772 57.519 81.6512 57.5979 81.6772C57.6243 81.7032 60.3622 83.1835 60.6518 83.3393C60.7045 83.3653 60.7308 83.4432 60.7045 83.5211C60.6518 83.5731 60.5992 83.5991 60.5728 83.5991Z" fill="#C46243"/>
<path d="M59.7308 85.0783C59.7045 85.0783 59.6519 85.0523 59.6255 85.0263C58.7831 84.0914 56.8349 83.3642 56.8086 83.3382C56.7296 83.3122 56.7033 83.2343 56.7296 83.1824C56.7559 83.1045 56.8349 83.0785 56.8876 83.1045C56.9665 83.1304 58.9147 83.8836 59.8098 84.8445C59.8625 84.8965 59.8625 84.9744 59.8098 85.0263C59.8098 85.0523 59.7572 85.0783 59.7308 85.0783Z" fill="#C46243"/>
<path d="M58.3898 86.3512C58.3634 86.3512 58.3634 86.3512 58.3371 86.3512C57.2314 85.9097 55.7571 84.9228 55.7044 84.8709C55.6518 84.8189 55.6255 84.741 55.6781 84.6891C55.7308 84.6371 55.8098 84.6111 55.8624 84.6631C55.8887 84.6631 57.363 85.676 58.4424 86.1175C58.5214 86.1435 58.5477 86.2214 58.5214 86.2993C58.4951 86.2993 58.4424 86.3512 58.3898 86.3512Z" fill="#C46243"/>
<path d="M36.7601 28.5247C36.7601 28.5247 38.3109 27.0491 40.1621 27.5813" stroke="#122149" stroke-width="0.69342" stroke-miterlimit="10" stroke-linecap="round"/>
<path d="M73.2431 45.942C73.2431 45.942 74.9078 44.8535 76.5049 45.6449" stroke="#122149" stroke-width="0.642773" stroke-miterlimit="10" stroke-linecap="round"/>
<path d="M46.1316 27.5712C46.1316 27.5712 47.6271 27.2143 48.9375 28.6125" stroke="#122149" stroke-width="0.69342" stroke-miterlimit="10" stroke-linecap="round"/>
<path d="M81.4054 45.7266C81.4054 45.7266 82.5856 44.9351 84.1828 45.7266" stroke="#122149" stroke-width="0.642773" stroke-miterlimit="10" stroke-linecap="round"/>
<path d="M-0.000150681 15.0386C-0.000150681 20.5827 4.52622 25.0772 10.1098 25.0772C15.6934 25.0772 20.2197 20.5827 20.2197 15.0386C20.2197 9.49443 15.6934 5 10.1098 5C4.52622 5 -0.000150681 9.49443 -0.000150681 15.0386Z" fill="#EAFCFF"/>
<path d="M12.8174 98.8428H110.456" stroke="#494949" stroke-width="1.30915" stroke-linecap="round"/>
<path d="M70.3242 70.6802H70.2915H70.2751V70.6646C70.2588 70.649 70.2588 70.6335 70.2588 70.6335V70.5867C70.2588 70.5711 70.2588 70.5711 70.2751 70.5556L71.1249 68.9197C71.1249 68.9042 71.1413 68.9042 71.1413 68.873C71.1576 68.8574 71.1576 68.8574 71.174 68.8574H71.223C71.2393 68.8574 71.2393 68.8574 71.272 68.873C71.2883 68.8886 71.321 68.9197 71.321 68.9353V69.0132L70.4712 70.6646C70.4712 70.6802 70.4549 70.6802 70.4222 70.7114H70.3242V70.6802Z" fill="#D1E5EC"/>
<path d="M61.2822 80.5029L61.2978 80.4718C61.2978 80.4562 61.329 80.4718 61.329 80.4718C61.3446 80.4718 61.3602 80.4718 61.3759 80.4718L61.4071 80.4874C61.4227 80.4874 61.4227 80.4874 61.4383 80.5185L62.6245 81.9211C62.6401 81.9211 62.6245 81.9523 62.6557 81.9523C62.6557 81.9679 62.6557 81.9835 62.6557 81.999L62.6401 82.0302C62.6401 82.0458 62.6401 82.0458 62.6089 82.0614C62.5933 82.077 62.562 82.077 62.5464 82.077L62.4684 82.0458L61.2822 80.6432C61.2666 80.6432 61.2822 80.612 61.2666 80.5964L61.2822 80.5029Z" fill="#D1E5EC"/>
<path d="M77.8685 73.5708L77.8845 73.54C77.8845 73.5246 77.9165 73.54 77.9165 73.54C77.9325 73.54 77.9485 73.54 77.9644 73.54H77.9964C78.0124 73.54 78.0124 73.54 78.0284 73.5708L79.2914 74.9107C79.3074 74.9107 79.2914 74.9415 79.3234 74.9415C79.3234 74.9569 79.3234 74.9723 79.3234 74.9877L79.3074 75.0185C79.3074 75.0339 79.3074 75.0339 79.2754 75.0493C79.2594 75.0647 79.2274 75.0647 79.2115 75.0647L79.1315 75.0339L77.8685 73.6941C77.8525 73.6941 77.8685 73.6632 77.8525 73.6478L77.8685 73.5708Z" fill="#D1E5EC"/>
<path d="M64.1825 72.2738V72.2432C64.1976 72.2432 64.2127 72.2432 64.2278 72.2432L64.258 72.2585C64.2731 72.2585 64.2731 72.2585 64.2882 72.2891L65.481 73.6215C65.4961 73.6215 65.481 73.6522 65.5112 73.6522C65.5112 73.6675 65.5112 73.6828 65.5112 73.6981L65.4961 73.7287C65.4961 73.7441 65.4961 73.744 65.4659 73.7594C65.4357 73.7747 65.4206 73.7747 65.4055 73.7747L65.33 73.7441L64.1372 72.4116C64.1221 72.4116 64.1372 72.381 64.1221 72.3657L64.1825 72.2738Z" fill="#D1E5EC"/>
<path d="M87.8845 74.4698H87.8529H87.8371V74.4548C87.8213 74.4398 87.8213 74.4248 87.8213 74.4248V74.3947C87.8213 74.3797 87.8213 74.3797 87.8371 74.3496L88.6595 72.7716C88.6595 72.7566 88.6753 72.7566 88.6753 72.7416C88.6911 72.7266 88.7069 72.7266 88.7069 72.7266H88.7386C88.7544 72.7266 88.7544 72.7266 88.7702 72.7416C88.786 72.7566 88.8018 72.7716 88.8018 72.8017V72.8768L87.9794 74.4698C87.9794 74.4849 87.9636 74.4849 87.9478 74.4999H87.8845V74.4698Z" fill="#D1E5EC"/>
<path d="M83.0466 71.6478H83.0162C83.0162 71.6478 83.001 71.6478 83.001 71.6325V71.6171C83.001 71.6017 83.001 71.5864 83.001 71.571V71.5403C83.001 71.525 83.001 71.525 83.0314 71.5096L84.1411 70.0971C84.1411 70.0818 84.1563 70.0818 84.1716 70.0664C84.1868 70.0664 84.202 70.0664 84.2172 70.0664H84.2476C84.2628 70.0664 84.2628 70.0664 84.278 70.0971C84.2932 70.1125 84.3084 70.1432 84.3084 70.1585L84.2932 70.2353L83.1834 71.6478C83.1834 71.6632 83.153 71.6478 83.1378 71.6785L83.0466 71.6478Z" fill="#D1E5EC"/>
<path d="M76.4288 69.4521V69.4219C76.4438 69.4219 76.4588 69.4219 76.4737 69.4219H76.5037C76.5187 69.4219 76.5187 69.4219 76.5337 69.4521L77.973 70.4647C77.988 70.4647 77.988 70.4798 78.003 70.4949C78.018 70.5101 78.018 70.5252 78.018 70.5403V70.5705C78.018 70.5856 78.018 70.5856 77.988 70.6007C77.958 70.6159 77.9431 70.631 77.9281 70.631H77.8531L76.4138 69.6184C76.3988 69.6184 76.3988 69.6032 76.3838 69.573L76.4288 69.4521Z" fill="#D1E5EC"/>
<path d="M71.6045 73.6435V73.6133C71.6195 73.6133 71.6345 73.6133 71.6495 73.6133H71.6795C71.6945 73.6133 71.6945 73.6133 71.7095 73.6435L73.1488 74.6561C73.1638 74.6561 73.1638 74.6712 73.1788 74.6863C73.1938 74.7015 73.1938 74.7166 73.1938 74.7317V74.7619C73.1938 74.777 73.1938 74.777 73.1638 74.7921C73.1338 74.8072 73.1188 74.8224 73.1038 74.8224H73.0289L71.5896 73.8098C71.5746 73.8098 71.5746 73.7946 71.5596 73.7644L71.6045 73.6435Z" fill="#D1E5EC"/>
<path d="M99.71 78.0771V78.0469C99.725 78.0469 99.74 78.0469 99.755 78.0469H99.785C99.8 78.0469 99.8 78.0469 99.815 78.0771L101.254 79.0897C101.269 79.0897 101.269 79.1048 101.284 79.1199C101.299 79.135 101.299 79.1502 101.299 79.1653V79.1955C101.299 79.2106 101.299 79.2106 101.269 79.2257C101.239 79.2408 101.224 79.256 101.209 79.256H101.134L99.695 78.2433C99.68 78.2433 99.68 78.2282 99.665 78.198L99.71 78.0771Z" fill="#D1E5EC"/>
<path d="M87.2139 66.7919V66.7617C87.2289 66.7617 87.2439 66.7617 87.2589 66.7617H87.2889C87.3039 66.7617 87.3039 66.7617 87.3189 66.7919L88.7582 67.8046C88.7732 67.8046 88.7732 67.8197 88.7882 67.8348C88.8032 67.8499 88.8032 67.865 88.8032 67.8801V67.9104C88.8032 67.9255 88.8032 67.9255 88.7732 67.9406C88.7432 67.9557 88.7282 67.9708 88.7132 67.9708H88.6383L87.1989 66.9582C87.1839 66.9582 87.1839 66.9431 87.1689 66.9129L87.2139 66.7919Z" fill="#D1E5EC"/>
<path d="M91.8848 70.017V69.9863C91.9006 69.9863 91.9165 69.9863 91.9324 69.9863H91.9641C91.98 69.9863 91.98 69.9863 91.9958 70.017L93.4238 71.197C93.4397 71.197 93.4397 71.2124 93.4555 71.2277C93.4555 71.243 93.4555 71.2583 93.4555 71.2737V71.3043C93.4555 71.3196 93.4555 71.3196 93.4238 71.335C93.4079 71.3503 93.3762 71.3656 93.3603 71.3503L93.281 71.335L91.853 70.1549C91.8372 70.1549 91.8372 70.1243 91.8213 70.1089L91.8848 70.017Z" fill="#D1E5EC"/>
<path d="M61.7859 77.5807L61.7549 77.5495C61.7549 77.5339 61.7549 77.5183 61.7549 77.5027L61.7859 77.4714C61.7859 77.4558 61.7859 77.4558 61.8325 77.4558L63.4945 76.6914C63.4945 76.6914 63.5255 76.6914 63.5411 76.6758C63.5566 76.6758 63.5721 76.6758 63.5877 76.6758L63.6187 76.707C63.6343 76.707 63.6343 76.707 63.6343 76.7538C63.6343 76.785 63.6343 76.8162 63.6343 76.8162L63.5877 76.8786L61.9257 77.6431C61.9257 77.6431 61.8947 77.6431 61.8636 77.6431L61.7859 77.5807Z" fill="#D1E5EC"/>
<path d="M9.65422 17.7552L9.5404 14.8048C9.53916 14.7576 9.53799 14.7133 9.53974 14.666C9.1189 14.6004 8.70791 14.4547 8.58418 14.077C8.50293 13.834 8.59251 13.5983 8.81636 13.4595C9.0343 13.3238 9.36896 13.3001 9.5961 13.5127C9.85393 13.7539 9.8629 14.0934 9.85022 14.4067C9.95822 14.4157 10.0662 14.4217 10.1621 14.428C10.2581 14.4343 10.345 14.438 10.417 14.4449C10.42 14.4448 10.6238 14.4542 10.8724 14.4565C10.8919 14.2906 10.9265 14.1243 10.988 13.9602C11.1082 13.638 11.5326 13.3846 11.8427 13.4503C11.93 13.4686 12.2048 13.5618 12.1742 13.9879C12.1217 14.7217 11.5985 14.7474 11.1525 14.7503C11.1494 14.9719 11.1704 15.1988 11.1912 15.4197L11.2083 15.6171C11.2619 16.2832 11.2918 16.9646 11.2946 17.6379L10.9953 17.64C10.9927 16.9726 10.9659 16.2999 10.9126 15.6397L10.8955 15.4453C10.8744 15.2155 10.8533 14.9827 10.8561 14.7493C10.6016 14.7472 10.3978 14.7378 10.3978 14.7378C10.3198 14.731 10.2358 14.7244 10.1459 14.7208C10.0529 14.7144 9.94798 14.7084 9.84297 14.6993C9.84375 14.7288 9.84445 14.7554 9.84523 14.7849L9.95329 17.7443L9.65422 17.7552ZM11.1687 14.4545C11.6624 14.4474 11.8406 14.3925 11.8713 13.9664C11.8868 13.7592 11.8025 13.7437 11.7754 13.7356C11.6219 13.7042 11.3386 13.8623 11.263 14.0592C11.2155 14.1875 11.1861 14.3212 11.1687 14.4545ZM9.17166 13.6509C9.09986 13.6528 9.02862 13.6754 8.97263 13.7093C8.89901 13.7556 8.81743 13.8404 8.8662 13.9868C8.94101 14.2123 9.22816 14.3169 9.54989 14.3704C9.55807 14.1132 9.54884 13.8772 9.38616 13.725C9.32784 13.6704 9.24944 13.6489 9.17166 13.6509Z" fill="#00A5EC"/>
<path d="M9.24648 18.2057L9.24311 18.16L9.44549 18.0994L9.24648 18.2057Z" fill="white"/>
<mask id="path-79-inside-1" fill="white">
<path d="M12.3506 19.2852L12.378 19.6571C12.4019 20.5602 11.6706 21.3209 10.7551 21.345L10.4231 21.3538C9.50767 21.378 8.7372 20.6571 8.71333 19.754L8.68506 19.3496"/>
</mask>
<path d="M12.378 19.6571L12.8568 19.6444L12.8565 19.6332L12.8557 19.6219L12.378 19.6571ZM8.71333 19.754L9.19219 19.7413L9.19191 19.7309L9.19119 19.7206L8.71333 19.754ZM11.8728 19.3204L11.9002 19.6923L12.8557 19.6219L12.8283 19.25L11.8728 19.3204ZM11.8991 19.6698C11.9158 20.3024 11.3995 20.8489 10.7425 20.8662L10.7678 21.8239C11.9416 21.7928 12.8879 20.818 12.8568 19.6444L11.8991 19.6698ZM10.7425 20.8662L10.4104 20.875L10.4357 21.8326L10.7678 21.8239L10.7425 20.8662ZM10.4104 20.875C9.7534 20.8924 9.20891 20.374 9.19219 19.7413L8.23447 19.7666C8.2655 20.9402 9.26194 21.8637 10.4357 21.8326L10.4104 20.875ZM9.19119 19.7206L9.16292 19.3162L8.2072 19.383L8.23547 19.7874L9.19119 19.7206Z" fill="#006BC2" mask="url(#path-79-inside-1)"/>
<path d="M12.2107 16.7178L12.0578 16.7867L12.0703 16.954L12.121 17.6331L8.89917 17.6829L8.87896 16.9531L8.87476 16.8014L8.73577 16.7403C6.69201 15.8426 5.75152 13.5289 6.62474 11.5212L6.62479 11.5211C7.51301 9.47614 9.953 8.50872 12.0704 9.37308C14.1813 10.2361 15.1681 12.5954 14.2789 14.6363L14.2786 14.6369C13.864 15.5953 13.1123 16.312 12.2107 16.7178Z" stroke="#006BC2" stroke-width="0.479001"/>
<path d="M12.6965 17.8515L12.7168 19.0765C12.718 19.1479 12.6588 19.213 12.5786 19.2143L8.56607 19.2818C8.48582 19.2831 8.42447 19.22 8.42329 19.1487L8.40293 17.9236C8.40174 17.8523 8.46095 17.7872 8.54121 17.7858L12.5537 17.7184C12.634 17.717 12.6953 17.7801 12.6965 17.8515Z" stroke="#006BC2" stroke-width="0.479001"/>
<ellipse cx="80.1248" cy="87.1674" rx="2.65118" ry="2.62936" fill="#00A5EC"/>
<path d="M9.74199 45.7542C9.74199 45.7542 8.48344 45.9498 8.48836 44.4642C8.48836 44.4642 8.50299 45.7482 7.31858 45.7361C7.31858 45.7361 8.2464 45.838 8.47418 47.0057C8.48512 47.0054 8.24002 46.0247 9.74199 45.7542Z" fill="#FBB043"/>
<path d="M100.118 64.8068C100.118 64.8068 101.374 64.5952 101.388 66.0807C101.388 66.0807 101.357 64.797 102.541 64.794C102.541 64.794 101.612 64.704 101.369 63.5393C101.359 63.5396 101.616 64.5171 100.118 64.8068Z" fill="#FBB043"/>
<path d="M12.9174 39.0904C12.9174 39.0904 11.0474 39.3719 11.0563 37.2444C11.0563 37.2444 11.0767 39.0832 9.31713 39.0671C9.31713 39.0671 10.6954 39.212 11.0326 40.8841C11.0488 40.8838 10.6857 39.4795 12.9174 39.0904Z" fill="#FBB043"/>
<path d="M103.15 70.3594C103.15 70.3594 105.016 70.0541 105.035 72.1816C105.035 72.1816 104.991 70.3432 106.75 70.3369C106.75 70.3369 105.37 70.2096 105.012 68.5419C104.995 68.5424 105.376 69.942 103.15 70.3594Z" fill="#FBB043"/>
<g opacity="0.8">
<path d="M107.892 14.9836C107.848 14.9414 107.792 14.9139 107.733 14.9046C107.674 14.8953 107.614 14.9047 107.56 14.9315L96.8772 20.2514C96.8289 20.2754 96.7879 20.3125 96.7585 20.3587C96.7292 20.405 96.7125 20.4587 96.7102 20.5142C96.708 20.5696 96.7203 20.6247 96.7459 20.6737C96.7714 20.7226 96.8093 20.7636 96.8554 20.7921L100.008 22.7469L100.285 24.931C100.292 24.9882 100.314 25.0422 100.35 25.0868C100.385 25.1315 100.432 25.1651 100.485 25.1837C100.537 25.2024 100.594 25.2053 100.648 25.1922C100.702 25.1792 100.752 25.1506 100.791 25.1098L101.921 23.9321L103.899 25.1583C103.936 25.1813 103.977 25.1957 104.02 25.2005C104.063 25.2052 104.107 25.2003 104.147 25.1859C104.188 25.1716 104.225 25.1482 104.257 25.1174C104.288 25.0866 104.312 25.0492 104.327 25.0076L107.967 15.3207C107.989 15.2633 107.993 15.2005 107.979 15.1404C107.966 15.0803 107.935 15.0257 107.892 14.9836ZM106.136 16.3249L100.241 22.176L97.6329 20.5589L106.136 16.3249ZM100.795 24.2306L100.658 23.1497L101.394 23.606L100.795 24.2306ZM103.901 24.4445L100.771 22.5045L106.925 16.3956L103.901 24.4445Z" fill="#006BC2"/>
</g>
</svg>
