<?xml version="1.0" encoding="utf-8"?>
<!-- Generator: Adobe Illustrator 25.4.1, SVG Export Plug-In . SVG Version: 6.00 Build 0)  -->
<svg version="1.1" id="Layer_1" xmlns="http://www.w3.org/2000/svg" xmlns:xlink="http://www.w3.org/1999/xlink" x="0px" y="0px"
	 viewBox="0 0 125.5 103.7" style="enable-background:new 0 0 125.5 103.7;" xml:space="preserve">
<style type="text/css">
	.st0{clip-path:url(#SVGID_00000172421030746730087730000007848443613154963854_);}
	.st1{fill:#2A2A2A;}
	.st2{fill:#EFA17B;}
	.st3{fill:#EF886A;}
	.st4{fill:#FAB188;}
	.st5{fill-rule:evenodd;clip-rule:evenodd;fill:#FAB188;filter:url(#Adobe_OpacityMaskFilter);}
	.st6{mask:url(#mask0_106:1906_00000166655394957419892640000012382377916646970257_);}
	.st7{fill:#1C2A30;}
	
		.st8{fill-rule:evenodd;clip-rule:evenodd;fill:#B01F81;filter:url(#Adobe_OpacityMaskFilter_00000079450631412893613170000000150754039274955409_);}
	.st9{mask:url(#mask1_106:1906_00000181067245733067355860000013774534036763609269_);}
	.st10{fill:none;stroke:#EEEEEE;stroke-miterlimit:10;}
	.st11{fill:#252525;}
	.st12{fill:#4EA5D5;}
	
		.st13{fill-rule:evenodd;clip-rule:evenodd;fill:#2DA2DB;filter:url(#Adobe_OpacityMaskFilter_00000003794016248396635790000011761226888417790350_);}
	.st14{mask:url(#mask2_106:1906_00000117660481966359413980000000407284478617406083_);}
	.st15{fill:none;stroke:#1D75BC;stroke-linecap:round;stroke-miterlimit:10;}
	
		.st16{fill-rule:evenodd;clip-rule:evenodd;fill:#FAB188;filter:url(#Adobe_OpacityMaskFilter_00000087386326449862879580000006443004724739729082_);}
	.st17{mask:url(#mask3_106:1906_00000178916332731463902310000014607793290365466797_);}
	
		.st18{fill-rule:evenodd;clip-rule:evenodd;fill:#FAB188;filter:url(#Adobe_OpacityMaskFilter_00000181804540466446876800000009172596012819087018_);}
	.st19{mask:url(#mask4_106:1906_00000109747653918635338840000002622555328745860771_);}
	.st20{fill:none;stroke:#231F20;stroke-linecap:round;stroke-miterlimit:10;}
	.st21{fill:none;stroke:#1C2A30;stroke-linecap:round;}
	.st22{fill:none;stroke:#1C2A30;stroke-linecap:round;stroke-miterlimit:10;}
	.st23{fill:#FFFFFF;stroke:#FFFFFF;stroke-width:0.4303;}
	.st24{fill:#EBF7FC;}
	.st25{fill:#E8F6FE;}
	.st26{fill:#FFFFFF;}
	.st27{fill:#134A98;}
	.st28{fill:none;stroke:#CCE6F8;stroke-width:0.7529;stroke-linecap:round;stroke-miterlimit:10;}
	.st29{fill:#2EA1DB;}
	.st30{fill-rule:evenodd;clip-rule:evenodd;fill:#666766;}
	.st31{fill:#FAB185;}
	.st32{fill:#FAB185;filter:url(#Adobe_OpacityMaskFilter_00000116231086657443937270000003911980987768759729_);}
	.st33{mask:url(#mask0_4337:3564_00000141455764385264007940000012328703202596162453_);}
	.st34{fill:#F18B6B;}
	.st35{fill:#2DA2DB;}
	.st36{fill:#236BB5;}
	.st37{fill:#152047;}
	.st38{fill:none;stroke:#226BB5;stroke-width:0.5243;}
	.st39{fill:none;stroke:#2CA2DC;stroke-width:0.5243;}
	.st40{fill:#203162;}
	.st41{fill:none;stroke:#1C2B31;stroke-width:0.32;stroke-linecap:round;stroke-miterlimit:10;}
	.st42{fill:none;stroke:#1C2B31;stroke-width:0.64;stroke-linecap:round;stroke-miterlimit:10;}
	.st43{fill:none;stroke:#394142;stroke-width:1.2746;stroke-linecap:round;stroke-miterlimit:10;}
	.st44{fill:#1A2A30;}
	.st45{fill:none;stroke:#1F3262;stroke-width:0.4266;stroke-miterlimit:10;}
	.st46{fill:none;stroke:#1F3262;stroke-width:0.4266;stroke-linecap:round;stroke-miterlimit:10;}
	.st47{fill:#4677BC;}
	.st48{fill:#1B6CAA;}
	.st49{fill:#0B598B;}
	.st50{fill:none;stroke:#3078AA;stroke-width:0.2133;stroke-miterlimit:10;}
	.st51{fill:none;stroke:#2474BB;stroke-width:0.4348;}
	.st52{fill:none;stroke:#2CA2DC;stroke-width:0.3262;}
	.st53{fill:#FBB043;}
	.st54{fill:#D27628;}
	.st55{fill:#2CA2DC;}
	.st56{fill:none;}
	.st57{font-family:'Inter-Bold';}
	.st58{font-size:1.3px;}
	.st59{fill:#666766;}
	.st60{font-family:'Inter-Medium';}
</style>
<g>
	<defs>
		<rect id="SVGID_1_" x="783" y="-177.5" width="163.1" height="526.5"/>
	</defs>
	<clipPath id="SVGID_00000057121875667355520470000009991836237863999159_">
		<use xlink:href="#SVGID_1_"  style="overflow:visible;"/>
	</clipPath>
	<g style="clip-path:url(#SVGID_00000057121875667355520470000009991836237863999159_);">
		<path class="st1" d="M853.5,324.6V349H851v-11l-7.6,9.5c-0.8,1-1.9,1.5-3.1,1.5h-34.6c-1.2,0-1.7-1.3-0.7-2c2.9-2,8.4-4.7,16.8-5
			c13-0.4,27.2-17.1,27.2-17.1L853.5,324.6z"/>
		<path class="st2" d="M821.7,342l15.1-0.5l16.8-17v-18.8l-15.9,0.5v18.9L821.7,342z"/>
		<path class="st3" d="M837.6,306.3v7.7l15.9-7v-1.2L837.6,306.3z"/>
		<path class="st1" d="M886.7,324.6V349h2.5v-11l7.6,9.5c0.8,1,1.9,1.5,3.2,1.5h34.6c1.2,0,1.7-1.3,0.7-2c-2.9-2-8.4-4.7-16.8-5
			c-13-0.4-27.1-17.1-27.1-17.1L886.7,324.6z"/>
		<path class="st2" d="M918.6,342l-15.1-0.5l-16.8-17v-18.8l15.9,0.5v18.9L918.6,342z"/>
		<path class="st3" d="M902.7,306.3v7.7l-15.9-7v-1.2L902.7,306.3z"/>
		<path class="st4" d="M942,22.9c-6.4,9.9-29.9,29.6-29.9,29.6s-1.5,3.5,0,5.2c1.5,1.7,7.6,9.2,4,14.4c-1.6,2.4-4.1,4.1-6.8,4.8
			l-9.4-32.3c0,0,18.1-22.3,20-26.1c1.9-3.8,1.9-5.4,0.2-8.1c-0.8-1.2-2.9-4.9-5-8.4c-2.3-3.9-4.5-7.7-4.5-7.7l18.3-18.3
			c0,0,1,1.5,2.1,3.7c3.7,7.5,13.7,24.5,14.1,26.7C945.6,9.4,948.4,13.1,942,22.9z"/>
		<defs>
			<filter id="Adobe_OpacityMaskFilter" filterUnits="userSpaceOnUse" x="909.3" y="-23.1" width="21.8" height="25.9">
				<feColorMatrix  type="matrix" values="1 0 0 0 0  0 1 0 0 0  0 0 1 0 0  0 0 0 1 0"/>
			</filter>
		</defs>
		
			<mask maskUnits="userSpaceOnUse" x="909.3" y="-23.1" width="21.8" height="25.9" id="mask0_106:1906_00000166655394957419892640000012382377916646970257_">
			<path class="st5" d="M938.3-6.4L916.8,5c-0.6-0.9-1.1-1.9-1.7-2.9c-2.3-3.9-4.5-7.7-4.5-7.7l18.3-18.3c0,0,1,1.5,2.1,3.7
				c1.5,3.1,4.1,7.8,6.7,12.4C937.8-7.3,938.1-6.8,938.3-6.4z"/>
		</mask>
		<g class="st6">
			<path class="st3" d="M931.1-19.6c-4.1,8.6-13.2,18.4-17.3,22.5c-2.3-3.9-4.5-7.7-4.5-7.7l20-18.2C929.3-23.1,930-21.7,931.1-19.6
				z"/>
		</g>
		<path class="st4" d="M829.2,45.4l-9.4,32.4c-2-2.1-3.6-4.5-4.8-7.2c-2.1-4.5,2.8-9.4,4.3-11.1c1.5-1.7-1.1-5.1-1.1-5.1
			s-24.7-20.8-31.2-30.7c-6.4-9.9-3.6-13.6-3-16.4c0.6-2.8,14.5-30.3,14.5-30.3l0.7,0.7l19.3,17.6l-3,5.1c-2.4,4.1-5.5,9.4-6.5,10.9
			c-1.7,2.6-1.7,4.3,0.2,8.1C811.1,23.1,829.2,45.4,829.2,45.4z"/>
		<path class="st3" d="M818.5-4.8l-3,5.1c-8.2-6.2-13.5-16.2-16.3-22.7L818.5-4.8z"/>
		<path class="st7" d="M837,31c0,0-21.3,25.5-21.8,73.1c-0.5,43.3,3.5,176.5,4.1,199.7c0,0.9,0.4,1.8,1.1,2.5c0.7,0.7,1.6,1,2.5,1
			h32c0.9,0,1.8-0.4,2.5-1c0.7-0.6,1.1-1.5,1.1-2.4l8.2-173.8L878.7,304c0.1,0.9,0.5,1.8,1.1,2.4c0.7,0.6,1.5,1,2.4,1H911
			c0.5,0,0.9-0.1,1.4-0.3c0.4-0.2,0.8-0.4,1.2-0.8c0.3-0.3,0.6-0.7,0.8-1.2c0.2-0.4,0.3-0.9,0.3-1.4l0.3-33.8l0.7-79.8l0.4-40.8
			c0.1-15.7,1.2-31.4,0.6-47.1c-0.4-13.8-2.6-27.5-6.6-40.7c-3.4-11-8.3-22.9-17.3-30.5C873,14.5,837,31,837,31z"/>
		<defs>
			
				<filter id="Adobe_OpacityMaskFilter_00000043418588917140123600000014777052654425821628_" filterUnits="userSpaceOnUse" x="818.1" y="289.5" width="98.4" height="1">
				<feColorMatrix  type="matrix" values="1 0 0 0 0  0 1 0 0 0  0 0 1 0 0  0 0 0 1 0"/>
			</filter>
		</defs>
		
			<mask maskUnits="userSpaceOnUse" x="818.1" y="289.5" width="98.4" height="1" id="mask1_106:1906_00000181067245733067355860000013774534036763609269_">
			
				<path style="fill-rule:evenodd;clip-rule:evenodd;fill:#B01F81;filter:url(#Adobe_OpacityMaskFilter_00000043418588917140123600000014777052654425821628_);" d="
				M818.9,286.7c0.2,7.7,0.4,13.6,0.5,17.1c0,0.9,0.4,1.8,1.1,2.5c0.7,0.7,1.6,1,2.5,1h32c0.9,0,1.8-0.4,2.5-1
				c0.7-0.6,1.1-1.5,1.1-2.4l0.9-19.2L818.9,286.7z M877.3,283.8l1.4,20.2c0.1,0.9,0.5,1.8,1.1,2.4c0.7,0.6,1.5,1,2.4,1H911
				c0.5,0,0.9-0.1,1.4-0.3c0.4-0.2,0.8-0.4,1.2-0.8c0.3-0.3,0.6-0.7,0.8-1.2c0.2-0.4,0.3-0.9,0.3-1.4l0.2-21.8L877.3,283.8z"/>
		</mask>
		<g class="st9">
			<path class="st10" d="M818.1,290h98.4"/>
		</g>
		<path class="st11" d="M858.3-174.4c0,0-19.5,2.1-29,19.5c-4.6,8.8-4.9,17.8-5.4,21.4c-0.5,3.6-0.3,8-0.6,10.3
			c-1.3,6-3.3,11.8-6,17.3c-3.3,6.1-12.9,29.1-10.8,44.4c0.9,8.3,8.6,15,8.6,15l100.2-6.1c0,0,4.1-16.8,2.5-25.5
			c-1.6-8.7-6.6-16.1-10.5-22.4c-3.2-6.1-6.5-15.3-8.8-29.3C896.3-143.9,888-174.3,858.3-174.4z"/>
		<path class="st12" d="M932-22.1L912.7-4.6c-0.4,0.3-0.8,0.5-1.2,0.6c-0.4,0.1-0.9,0.2-1.4,0.1c-0.5-0.1-0.9-0.3-1.3-0.5
			c-0.4-0.3-0.7-0.6-0.9-1L906.5-8l-2.4-3.8c-2.6,14.6-6.5,28.9-11.4,42.8H837c-4.6-13.9-7.8-28.3-9.6-42.8L825-8l-1.5,2.6
			c-0.2,0.4-0.6,0.7-0.9,1c-0.4,0.3-0.8,0.4-1.3,0.5c-0.5,0.1-0.9,0.1-1.4-0.1c-0.4-0.1-0.9-0.3-1.2-0.6c-3.6-3.2-9.4-8.4-10.1-9.1
			c-2.2-2-4.5-4-6.7-6.1c-1.6-1.5-5-3.4-3.5-5.9c5.4-9,10.8-18,16.2-27c3.9-6.4,10.1-12.5,17.4-14.7c7.7-2.4,29.2-1.1,29.2-1.1
			l4.5,5.4l18.7-8.2c5.2,0.5,10.3,1.8,15.1,3.9c7.5,3.6,13.8,9.2,18.2,16.2c5.3,8.2,10.1,16.8,15,25.3c0.3,0.6,0.5,1.3,0.4,2
			C932.9-23.2,932.5-22.6,932-22.1L932-22.1z"/>
		<defs>
			
				<filter id="Adobe_OpacityMaskFilter_00000044162964452612426710000007056355641282851506_" filterUnits="userSpaceOnUse" x="801.9" y="-32.1" width="128.7" height="23.5">
				<feColorMatrix  type="matrix" values="1 0 0 0 0  0 1 0 0 0  0 0 1 0 0  0 0 0 1 0"/>
			</filter>
		</defs>
		
			<mask maskUnits="userSpaceOnUse" x="801.9" y="-32.1" width="128.7" height="23.5" id="mask2_106:1906_00000117660481966359413980000000407284478617406083_">
			
				<path style="fill-rule:evenodd;clip-rule:evenodd;fill:#2DA2DB;filter:url(#Adobe_OpacityMaskFilter_00000044162964452612426710000007056355641282851506_);" d="
				M829.3-66.4c-6.1,2.8-11.3,8.1-14.6,13.7c-2.1,3.4-4.1,6.9-6.2,10.3c-3.4,5.6-6.7,11.1-10,16.7c-1.2,2,0.9,3.7,2.5,5.1
				c0.4,0.3,0.7,0.6,1,0.9c2.2,2.1,4.4,4.1,6.7,6.1c0.4,0.4,2.3,2,4.5,4c1.9,1.7,4,3.6,5.6,5.1c0.4,0.3,0.8,0.5,1.2,0.6
				c0.4,0.1,0.9,0.1,1.4,0.1c0.5-0.1,0.9-0.3,1.3-0.5c0.4-0.3,0.7-0.6,0.9-1L825-8l2.4-3.8c0.5,4.1,1.1,8.3,1.9,12.4V-66.4z
				 M903-6.1c0.4-1.9,0.7-3.8,1.1-5.7l2.4,3.8l1.4,2.6c0.2,0.4,0.6,0.7,0.9,1c0.4,0.3,0.8,0.4,1.3,0.5c0.5,0.1,0.9,0.1,1.4-0.1
				c0.4-0.1,0.9-0.3,1.2-0.6L932-22.1c0.5-0.5,0.8-1.1,1-1.8c0.1-0.7,0-1.4-0.4-2c-1.2-2.1-2.4-4.2-3.7-6.4
				c-3.6-6.4-7.3-12.8-11.3-18.9C914-57,908.9-61.9,903-65.5V-6.1z"/>
		</mask>
		<g class="st14">
			<path class="st15" d="M904-11.5v-18.4"/>
			<path class="st15" d="M827.4-11.8l-0.2-18.1"/>
			<path class="st15" d="M906.4-9.1L930.1-31"/>
			<path class="st15" d="M802.4-31.6L825-9.8"/>
		</g>
		<path class="st4" d="M852.4-74.7c0,0-8.9,3-19.4,6.8c3.8,2.3,18.8,4.7,30.3,4.7c17.2,0,27.2-7.1,27.2-7.1
			c-6.2-2.1-12.6-3.6-19.2-4.6c-0.2,0-0.3-0.1-0.4-0.2c-0.1-0.1-0.2-0.3-0.2-0.4c-0.1-5.7-0.3-22.3-0.3-22.3h-18.1
			C852.2-97.4,852.4-74.7,852.4-74.7"/>
		<defs>
			
				<filter id="Adobe_OpacityMaskFilter_00000013181040625645275360000003799329362251700145_" filterUnits="userSpaceOnUse" x="845.2" y="-103.5" width="29.1" height="16.9">
				<feColorMatrix  type="matrix" values="1 0 0 0 0  0 1 0 0 0  0 0 1 0 0  0 0 0 1 0"/>
			</filter>
		</defs>
		
			<mask maskUnits="userSpaceOnUse" x="845.2" y="-103.5" width="29.1" height="16.9" id="mask3_106:1906_00000178916332731463902310000014607793290365466797_">
			
				<path style="fill-rule:evenodd;clip-rule:evenodd;fill:#FAB188;filter:url(#Adobe_OpacityMaskFilter_00000013181040625645275360000003799329362251700145_);" d="
				M852.3-82.8h18.3c-0.1-6-0.1-11.9-0.1-11.9h-18.1C852.3-94.5,852.3-88.6,852.3-82.8z"/>
		</mask>
		<g class="st17">
			<path class="st3" d="M868.3-86.6c0,0-15.8,0.6-22.2-11.3c-6.4-11.9,25.6-1.1,25.6-1.1l2.7,12.3L868.3-86.6z"/>
		</g>
		<path class="st4" d="M893.5-115.4c-1.4,6.3-7,7-9.5,6.8c-4.2,12.1-13.8,15.9-20.5,16.8c-1.7,0.1-4.1,0.2-5.8,0
			c-15.3-2.6-19-10.5-20.8-15.5c-6.4,0.4-10.8-2.1-11.7-7.1c-0.3-1.8-0.1-3.6,0.7-5.3c0.3-0.8,0.9-1.6,1.7-2.1
			c0.8-0.5,1.6-0.8,2.5-0.8c0.9,0.1,1.8,0.4,2.6,0.8c0.8,0.4,1.5,1,2.1,1.7c0.1-0.9,0.1-1.9,0-2.8v-3.3c0-2.1,0-4.2,0-6.3
			c0,0,7.3-7.2,10.4-20.1l0.8,0.9c2.6,3.2,12.3,12.1,37.4,13.4c0.5,0.2,1.1,0.2,1.7,0.1c0.1,6.3,0.5,14.5,0.2,16.9
			C889.4-125.2,894.9-121.5,893.5-115.4z"/>
		<defs>
			
				<filter id="Adobe_OpacityMaskFilter_00000164497599746345030930000015862073558036342959_" filterUnits="userSpaceOnUse" x="820.9" y="-121.2" width="77.8" height="14.3">
				<feColorMatrix  type="matrix" values="1 0 0 0 0  0 1 0 0 0  0 0 1 0 0  0 0 0 1 0"/>
			</filter>
		</defs>
		
			<mask maskUnits="userSpaceOnUse" x="820.9" y="-121.2" width="77.8" height="14.3" id="mask4_106:1906_00000109747653918635338840000002622555328745860771_">
			
				<path style="fill-rule:evenodd;clip-rule:evenodd;fill:#FAB188;filter:url(#Adobe_OpacityMaskFilter_00000164497599746345030930000015862073558036342959_);" d="
				M837.7-136.1c-1.7,2.4-3,3.6-3,3.6v6.3v3.3c0.1,0.9,0.1,1.9,0,2.8c-0.6-0.7-1.3-1.3-2.1-1.7c-0.8-0.4-1.7-0.7-2.6-0.8
				c-0.9,0-1.8,0.3-2.5,0.8c-0.8,0.5-1.3,1.2-1.7,2.1c-0.8,1.6-1,3.5-0.7,5.3c0.9,5,5.3,7.5,11.7,7.1c0.2,0.6,0.5,1.3,0.8,1.9
				V-136.1z M883-105.9c0.4-0.8,0.7-1.7,1.1-2.6c2.4,0.1,8-0.5,9.5-6.8c1.4-6.1-4.2-9.8-8.4-5.8c0.3-1.9,0.1-7.1,0-12.3
				c0-1.6-0.1-3.2-0.1-4.6c-0.6,0.1-1.1,0.1-1.7-0.1c-0.1,0-0.2,0-0.3,0V-105.9z"/>
		</mask>
		<g class="st19">
			<path class="st3" d="M886.7-107.6c-0.3,0.1-0.6,0.1-0.9,0.1c-0.3,0-0.6-0.1-0.8-0.3c-0.2-0.2-0.4-0.4-0.6-0.6
				c-0.2-0.3-0.2-0.5-0.3-0.8c-0.5-4.8-0.3-15.1,9.9-9.9C905.7-114.4,892.3-109.4,886.7-107.6z"/>
			<path class="st3" d="M823.6-116.6c0,0,11.3-9.9,12.5,4.1c0.2,1.9,0.2,3.2,0.2,4c0,0.2-0.1,0.5-0.2,0.7c-0.1,0.2-0.3,0.4-0.4,0.5
				c-0.2,0.1-0.4,0.2-0.6,0.3c-0.2,0-0.5,0-0.7,0l-13.6-3.7L823.6-116.6z"/>
			<path class="st20" d="M834.8-116c-0.2-1-0.7-1.9-1.5-2.5c-0.8-0.6-1.7-1-2.7-1c-0.5,0.1-0.9,0.2-1.3,0.5c-0.4,0.2-0.8,0.6-1,0.9"
				/>
			<path class="st20" d="M891.1-119.6c-0.4-0.6-1-0.9-1.7-1.1c-2.2-0.4-4.2,1.8-4.3,3.8"/>
		</g>
		<path class="st7" d="M865.7-134.7c0,0-0.1-2.9,0.4-3.6c0.5-0.7,1.8-1.2,6.1,0c4.3,1.2,5.9,4.1,6.1,4.9c0.2,0.8,0.3,1.7-1.8,1.2
			c-2.1-0.5-9.7-1.7-10.4-1.8C865.8-134.1,865.7-134.7,865.7-134.7z"/>
		<path class="st7" d="M853.4-134.7c0,0,0.1-2.9-0.5-3.6c-0.5-0.7-1.8-1.2-6.1,0c-4.3,1.2-5.9,4.1-6.1,4.9c-0.2,0.8-0.3,1.7,1.8,1.2
			c2.1-0.5,9.7-1.7,10.4-1.8C853.4-134.1,853.4-134.7,853.4-134.7z"/>
		<path class="st21" d="M854.6-107c0.6,0.7,3.5,2.6,6.8,2.6s5.8-1.9,6.3-2.6"/>
		<path class="st7" d="M849.9-122.4c1.3,0,2.4-1.1,2.4-2.4c0-1.3-1.1-2.4-2.4-2.4c-1.3,0-2.4,1.1-2.4,2.4
			C847.5-123.4,848.5-122.4,849.9-122.4z"/>
		<path class="st7" d="M871.2-122.4c1.3,0,2.4-1.1,2.4-2.4c0-1.3-1.1-2.4-2.4-2.4s-2.4,1.1-2.4,2.4
			C868.8-123.4,869.9-122.4,871.2-122.4z"/>
		<path class="st22" d="M859.4-117.5c0,0-1.1,3,0,4.2c0.4,0.4,0.8,0.6,1.3,0.8c0.5,0.2,1,0.2,1.5,0.1"/>
		<path class="st23" d="M881.5-39.8L881.5-39.8L881.5-39.8l0.3,0.2l0.1,0l0-0.1l2.9-5.9l0-0.1l-0.1,0l-0.3-0.1l-0.1,0l0,0.1
			L881.5-39.8z"/>
		<path class="st23" d="M875.4-50.9L875.4-50.9L875.4-50.9l0.2,0.3l0,0l0,0l4.9-5.1l0,0l0,0l-0.2-0.2l0,0l0,0L875.4-50.9z"/>
		<path class="st23" d="M895.3-55.6L895.3-55.6L895.3-55.6l0.2-0.4l0-0.1l-0.1,0l-4.4-1.5l-0.1,0l0,0.1l-0.1,0.3l0,0.1l0.1,0
			L895.3-55.6z"/>
		<path class="st23" d="M890.7-41.5L890.7-41.5L890.7-41.5l4.7-2.6l0.1,0l0-0.1l-0.2-0.3l0-0.1l-0.1,0l-4.6,2.7l-0.1,0l0,0.1
			L890.7-41.5z"/>
		<path class="st23" d="M898.6-34.3L898.6-34.3L898.6-34.3l4.3-3l0.1,0l0-0.1l-0.2-0.3l0-0.1l-0.1,0l-4.2,3l-0.1,0l0,0.1L898.6-34.3
			z"/>
		<path class="st23" d="M907.3-31.4L907.3-31.4L907.3-31.4l0.2,0.4l0,0.1l0.1,0l3.8-2.9l0.1,0l0-0.1l-0.2-0.3l0-0.1l-0.1,0
			L907.3-31.4z"/>
		<path class="st23" d="M902.9-47.4L902.9-47.4L902.9-47.4l3.5,2.8l0.1,0l0-0.1l0.2-0.3l0-0.1l-0.1,0l-3.5-2.7l-0.1,0l0,0.1
			L902.9-47.4z"/>
		<path class="st23" d="M839.8-52.7L839.8-52.7L839.8-52.7l0.2,0.4l0,0.1l0.1,0l4.5-3.3l0.1,0l0-0.1l-0.2-0.3l0-0.1l-0.1,0
			L839.8-52.7z"/>
		<path class="st23" d="M850.5-43.2L850.5-43.2L850.5-43.2l0.2-0.3l0-0.1l-0.1,0l-4.8-2.3l-0.1,0l0,0.1l-0.1,0.3l0,0.1l0.1,0
			L850.5-43.2z"/>
		<path class="st23" d="M848.2-25.9L848.2-25.9L848.2-25.9l0.2-0.3l0-0.1l-0.1,0l-4.4-2.2l-0.1,0l0,0.1l-0.1,0.3l0,0.1l0.1,0
			L848.2-25.9z"/>
		<path class="st23" d="M823.5-25.2L823.5-25.2L823.5-25.2l0.4-0.2l0.1,0l0-0.1l-2.7-4.7l0-0.1l-0.1,0l-0.3,0.2l-0.1,0l0,0.1
			L823.5-25.2z"/>
		<path class="st23" d="M826.3-41.3L826.3-41.3L826.3-41.3l0.2,0.4l0,0.1l0.1,0l4.4-3.6l0.1,0l0-0.1l-0.2-0.3l0-0.1l-0.1,0
			L826.3-41.3z"/>
		<path class="st23" d="M835.5-42.6L835.5-42.6L835.5-42.6l4.2,3l0.1,0l0-0.1l0.2-0.3l0-0.1l-0.1,0l-4.2-2.9l-0.1,0l0,0.1
			L835.5-42.6z"/>
		<path class="st23" d="M859.7-39.2L859.7-39.2L859.7-39.2l5.9-0.1l0.1,0l0-0.1l0-0.3l0-0.1l-0.1,0l-5.8,0.2l-0.1,0l0,0.1
			L859.7-39.2z"/>
		<path class="st23" d="M855.6-50.2L855.6-50.2L855.6-50.2l4.7,2.2l0.1,0l0-0.1l0.1-0.3l0-0.1l-0.1,0l-4.6-2.1l-0.1,0l0,0.1
			L855.6-50.2z"/>
		<path class="st23" d="M862.4-28.1L862.4-28.1L862.4-28.1l4.7-2.8l0.1,0l0-0.1l-0.2-0.3l0-0.1l-0.1,0l-4.6,2.8l-0.1,0l0,0.1
			L862.4-28.1z"/>
		<path class="st23" d="M854.9-13.3L854.9-13.3L854.9-13.3l0.2-0.3l0-0.1l-0.1,0l-5.4-2.7l-0.1,0l0,0.1l-0.2,0.3l0,0.1l0.1,0
			L854.9-13.3z"/>
		<path class="st23" d="M873.6-18.4L873.6-18.4L873.6-18.4l0.2,0.4l0,0.1l0.1,0l3.7-2.8l0.1,0l0-0.1l-0.2-0.3l0-0.1l-0.1,0
			L873.6-18.4z"/>
		<path class="st23" d="M892.2-26.1L892.2-26.1L892.2-26.1l0.3-0.3l0-0.1l-0.1,0l-4.1-2.3l-0.1,0l0,0.1l-0.2,0.3l0,0.1l0.1,0
			L892.2-26.1z"/>
		<path class="st23" d="M846,7.3L846,7.3L846,7.3l0.3,0.3l0,0l0,0l3.1-3.5l0,0l0,0l-0.3-0.2l0,0l0,0.1L846,7.3z"/>
		<path class="st23" d="M847.9-1.1L847.9-1.1L847.9-1.1l0.3,0.3l0.1,0l0-0.1l2.8-3.8l0-0.1l-0.1,0l-0.3-0.2l-0.1,0l0,0.1L847.9-1.1z
			"/>
		<path class="st23" d="M841.7-11.6L841.7-11.6L841.7-11.6l2.2,3l0,0.1l0.1,0l0.3-0.2l0.1,0l0-0.1l-2.2-2.9l0-0.1l-0.1,0L841.7-11.6
			z"/>
		<path class="st23" d="M861.1-0.8L861.1-0.8L861.1-0.8l4.7,2l0.1,0l0-0.1l0.1-0.3l0-0.1l-0.1,0l-4.7-1.9l-0.1,0l0,0.1L861.1-0.8z"
			/>
		<path class="st23" d="M865.1-8.9L865.1-8.9L865.1-8.9l0.3,0.3l0.1,0l0-0.1l3.4-4l0-0.1l-0.1,0l-0.3-0.2l-0.1,0l0,0.1L865.1-8.9z"
			/>
		<path class="st23" d="M877.2-5.9L877.2-5.9L877.2-5.9l0.2,0.4l0,0.1l0.1,0l3.8-3.1l0.1,0l0-0.1l-0.2-0.3l0-0.1l-0.1,0L877.2-5.9z"
			/>
		<path class="st23" d="M879.2,3.9L879.2,3.9L879.2,3.9l0.1,0.4l0,0.1l0.1,0l5-2.9l0.1,0l0-0.1L884.3,1l0-0.1l-0.1,0L879.2,3.9z"/>
		<path class="st23" d="M861.7,8.8L861.7,8.8L861.7,8.8l6,2.2l0.1,0l0-0.1l0.1-0.3l0-0.1l-0.1,0l-5.9-2.1l-0.1,0l0,0.1L861.7,8.8z"
			/>
	</g>
</g>
<g>
	
		<image style="overflow:visible;" width="980" height="2495" xlink:href="772057BA.png"  transform="matrix(0.24 0 0 0.24 962.1374 -213.6696)">
	</image>
</g>
<ellipse class="st24" cx="109.4" cy="32.7" rx="10" ry="9.9"/>
<path class="st25" d="M54.2,4.5v29.8c0,0.3-0.1,0.6-0.2,0.9c-0.1,0.3-0.3,0.5-0.5,0.8c-0.2,0.2-0.5,0.4-0.8,0.5
	c-0.3,0.1-0.6,0.2-0.9,0.2H10.7c-0.3,0-0.6-0.1-0.9-0.2c-0.3-0.1-0.5-0.3-0.8-0.5c-0.2-0.2-0.4-0.5-0.5-0.8
	c-0.1-0.3-0.2-0.6-0.2-0.9V4.5c0-0.3,0.1-0.6,0.2-0.9c0.1-0.3,0.3-0.5,0.5-0.8c0.2-0.2,0.5-0.4,0.8-0.5c0.3-0.1,0.6-0.2,0.9-0.2
	h41.1c0.3,0,0.6,0.1,0.9,0.2c0.3,0.1,0.5,0.3,0.8,0.5c0.2,0.2,0.4,0.5,0.5,0.8C54.1,3.9,54.2,4.2,54.2,4.5z"/>
<path class="st26" d="M52.6,5.7V33c0,0.3-0.1,0.6-0.2,0.8c-0.1,0.3-0.3,0.5-0.5,0.7c-0.2,0.2-0.4,0.4-0.7,0.5
	c-0.3,0.1-0.5,0.2-0.8,0.2H12.2c-0.3,0-0.6-0.1-0.8-0.2c-0.3-0.1-0.5-0.3-0.7-0.5c-0.2-0.2-0.4-0.4-0.5-0.7C10.1,33.6,10,33.3,10,33
	V5.7c0-0.3,0.1-0.6,0.2-0.8c0.1-0.3,0.3-0.5,0.5-0.7c0.2-0.2,0.4-0.4,0.7-0.5c0.3-0.1,0.5-0.2,0.8-0.2h38.2c0.3,0,0.6,0.1,0.8,0.2
	c0.3,0.1,0.5,0.3,0.7,0.5c0.2,0.2,0.4,0.4,0.5,0.7C52.5,5.2,52.6,5.4,52.6,5.7z"/>
<path class="st27" d="M21.3,3.6v31.6h-9.1c-0.3,0-0.6-0.1-0.8-0.2c-0.3-0.1-0.5-0.3-0.7-0.5c-0.2-0.2-0.4-0.4-0.5-0.7
	C10.1,33.6,10,33.3,10,33V5.7c0-0.3,0.1-0.6,0.2-0.8c0.1-0.3,0.3-0.5,0.5-0.7c0.2-0.2,0.4-0.4,0.7-0.5c0.3-0.1,0.5-0.2,0.8-0.2H21.3
	z"/>
<path class="st28" d="M26.1,15.7H46"/>
<path class="st28" d="M26.1,18.3H46"/>
<path class="st28" d="M30.4,20.9h11.3"/>
<path class="st29" d="M34.7,7.7l0.4,0.3v0.4l0.3-0.2l0.3,0.2l0.7-1.1L34.7,7.7z M35.3,8.2l-0.1,0.2V8l1.1-0.5L35.3,8.2z"/>
<path class="st30" d="M33.6,8.8c0.5-0.1,0.9-0.2,1.3-0.4C34.8,8.6,33.8,8.9,33.6,8.8z"/>
<path class="st30" d="M35.4,8.3l-0.3,0.2l0.2-0.3L35.4,8.3z"/>
<path class="st31" d="M78,42.3c-0.2,1.6-2.2,2.4-3.4,2c-0.1,0-0.2-0.1-0.3-0.1c-1.2,4.6-5.2,6.9-5.5,7.1l0,0v3.5
	c0,0,0.1,0.6-0.3,2.2c-0.8,1.4-4.6,1-4.6,1l-2.6-2.5c0,0,0-2.4,0-3.7v-0.3c0,0,0,0,0,0c-0.2-0.1-0.4-0.2-0.5-0.2
	c-4.9-2.5-5.9-5.7-6.1-6.4v0c0,0,0,0,0,0c0-0.1,0-0.2,0-0.2c-0.5,0.3-3.9,0.4-4.2-2.5v0c0-0.2,0-0.3,0-0.5c0.1-3.4,3.5-1.8,3.5-1.8
	c0.1-1.8,0-3.5-0.1-5.3c-0.3-3.2,7.9-4.9,12.8-6.8c4.9-2,5.9,2.5,7.2,4c1.2,1.5,0.6,5.8,1.9,7.1c1.2-0.2,2,0.7,2.2,1.9
	C78.1,41.3,78.1,41.8,78,42.3z"/>
<defs>
	
		<filter id="Adobe_OpacityMaskFilter_00000153686503706799094900000013767623942801839237_" filterUnits="userSpaceOnUse" x="50.6" y="40.2" width="27.5" height="13.2">
		<feColorMatrix  type="matrix" values="1 0 0 0 0  0 1 0 0 0  0 0 1 0 0  0 0 0 1 0"/>
	</filter>
</defs>
<mask maskUnits="userSpaceOnUse" x="50.6" y="40.2" width="27.5" height="13.2" id="mask0_4337:3564_00000141455764385264007940000012328703202596162453_">
	<path style="fill:#FAB185;filter:url(#Adobe_OpacityMaskFilter_00000153686503706799094900000013767623942801839237_);" d="
		M54.1,39.9c0,0-3.4-1.6-3.5,1.8c-0.1,3.4,3.6,3.3,4.2,3c0,0,0.4,3.7,6.1,6.6c0.2,0.1,0.3,0.2,0.5,0.2c0,1.1,0,4,0,4l2.6,2.5
		c0,0,3.9,0.3,4.6-1c0.4-1.6,0.3-2.2,0.3-2.2v-3.5c0,0,4.3-2.4,5.5-7.1c1.2,0.5,3.4-0.2,3.7-2c0.3-1.7-0.5-3.8-2.2-3.5
		c-1.3-1.3-0.7-5.6-1.9-7.1c-1.2-1.5-2.2-6-7.2-4c-4.9,2-13,3.7-12.8,6.8C54.2,36.4,54.2,38.1,54.1,39.9z"/>
</mask>
<g class="st33">
	<path class="st34" d="M68.9,51.4V53h0c-3.4,1.3-6.5-0.4-7.5-1.1v-0.3C66,53.3,68.9,51.4,68.9,51.4L68.9,51.4z"/>
	<path class="st34" d="M78,42.3c-0.2,1.6-2.2,2.4-3.4,2c-0.1-1.2-0.3-5.6,3.4-3.6C78.1,41.3,78.1,41.8,78,42.3z"/>
	<path class="st34" d="M54.8,44.9c0-0.1,0-0.2,0-0.2c-0.5,0.3-3.9,0.4-4.2-2.5v0c1.1-0.8,3.2-2,4.1,0.5
		C54.7,43.5,54.8,44.3,54.8,44.9z"/>
</g>
<path class="st35" d="M94.4,101.5H38.1c-3.5-1.4-2.8-6.9-2.8-6.9l7.2-25.6c0,0,0.9-3.9,2.7-5.9c0.9-1,5.3-2.9,9.2-4.5
	c3.6-1.4,6.8-2.6,6.9-2.6l0.1-0.5l3.8,1.7l0.5,0.2l0.1-0.1l3.2-2.6c0,0.6,0.2,1.2,0.4,1.8c1.2,0.2,2.9,0.8,4.8,1.4
	c4.6,1.6,10,4,11.3,4.6c1.1,0.6,2.1,1.4,2.8,2.5c0,0,7.9,25,8.7,29.8C97.8,99.7,94.4,101.5,94.4,101.5z"/>
<path class="st36" d="M74,58.5c0,0-3.1,16.8-3,18.9c0.1,2,3-0.4,3-0.4V58.5z"/>
<path class="st36" d="M54.3,58.7c0,0,5.9,15.7,5.8,17.1c-0.1,1.3-2.9,0.5-2.9,0.5L54.3,58.7z"/>
<path class="st37" d="M94.4,101.5H38.1c-3.5-1.4-2.8-6.9-2.8-6.9l7.2-25.6c0,0,0.9-3.9,2.7-5.9c0.9-1,5.3-2.9,9.2-4.5
	c1.2,3.4,3.5,10.3,5.8,20.1c10.5,0.6,11.7-2.4,11.7-2.4s1.5-12.7,2.3-18.3c4.6,1.6,10,4,11.3,4.6c1.1,0.6,2.1,1.4,2.8,2.5
	c0,0,7.9,25,8.7,29.8S94.4,101.5,94.4,101.5z"/>
<path class="st37" d="M54.8,35.5v5.9c0,0-1.5-1.1-1.8-3c-0.3-1.9-0.8-4.7-0.8-4.7c-0.1-0.7-0.7-1.3-0.9-2c-0.1-0.8-0.1-1.6,0.2-2.3
	c0.9-3,3-5.7,6.1-6.7c2.6-0.8,5.4-0.8,8.1-0.5c1.5,0.2,3,0.4,4.5,0.8c0,0,5.2,1.7,3.6,6.9c1.2,0.7,2.2,1.6,2.4,2.9
	c0.2,1.3-0.4,6-0.4,6c-0.5,0.3-0.9,0.6-1.2,1.1c-0.3,0.5-0.5,1-0.5,1.5c0-3.8-0.2-6.6-0.5-7.2c-0.3-0.6-1.7-2.7-1.9-4
	c-0.8-0.1-6.1-1.6-11,1.9c-3.8,2.2-4.9,2.9-5.9,3L54.8,35.5z"/>
<path class="st38" d="M110.1,32.4c-0.3,0-0.6,0.3-0.5,0.6l0.8,4.7c-0.9,0.1-1.8-0.1-2.6-0.4c-0.9-0.4-1.7-1.1-2.2-2
	c-0.5-0.9-0.7-1.8-0.6-2.8c0.1-1,0.5-1.9,1.1-2.7c0.6-0.8,1.5-1.3,2.4-1.6c1-0.3,2-0.3,2.9,0c0.9,0.3,1.8,0.9,2.4,1.7
	c0.5,0.7,0.9,1.6,1,2.4H110.1z"/>
<path class="st39" d="M110.7,33.4l4,0.1c-0.3,1.8-1.6,3.4-3.2,4L110.7,33.4z"/>
<path class="st40" d="M87.2,77.2v22.9c0,0.4-0.1,0.7-0.4,1c-0.3,0.3-0.6,0.4-1,0.4H48.1c-0.4,0-0.7-0.1-1-0.4
	c-0.3-0.3-0.4-0.6-0.4-1V77c0-0.2,0-0.4,0.1-0.5c0.1-0.2,0.2-0.3,0.3-0.4c0.1-0.1,0.3-0.2,0.4-0.3s0.3-0.1,0.5-0.1l15.6,0.1l5.1,0
	l17,0.1c0.4,0,0.7,0.1,1,0.4C87.1,76.5,87.2,76.8,87.2,77.2z"/>
<path class="st41" d="M62.6,45.9c0,0,3,1.8,5.1-0.8"/>
<path class="st41" d="M64.8,40.9c0,0,0.8,0.4,0.7,1.1c0,0.2-0.1,0.4-0.2,0.6c-0.1,0.2-0.3,0.3-0.5,0.3"/>
<path class="st42" d="M58,35.6C58,35.6,57.8,35.8,58,35.6c0.8-0.6,2.2-1.3,3.8-0.5"/>
<path class="st42" d="M67,35c0,0,2.3-1.1,3.8,0.2"/>
<path class="st43" d="M29.2,101.4h74"/>
<path class="st44" d="M60.5,39.6c0.5,0,0.9-0.4,0.9-0.9c0-0.5-0.4-0.9-0.9-0.9c-0.5,0-0.9,0.4-0.9,0.9
	C59.7,39.2,60.1,39.6,60.5,39.6z"/>
<path class="st44" d="M68.6,39.6c0.5,0,0.9-0.4,0.9-0.9c0-0.5-0.4-0.9-0.9-0.9c-0.5,0-0.9,0.4-0.9,0.9
	C67.8,39.2,68.1,39.6,68.6,39.6z"/>
<ellipse class="st24" cx="91.7" cy="12.2" rx="10" ry="9.9"/>
<path class="st38" d="M88.4,15.8c0,0.2,0.1,0.5,0.4,0.5H90c0.2,0,0.4-0.1,0.4-0.3l0.2-1.4h0.6c0.2,0,0.4-0.1,0.4-0.3l0.2-1.2
	c0-0.2-0.1-0.5-0.4-0.5H91l0.1-0.6h0.6c0.2,0,0.4-0.1,0.4-0.3l0.2-1.2c0-0.2-0.1-0.5-0.4-0.5h-0.5l0.2-1.3c0-0.2-0.1-0.5-0.4-0.5H90
	c-0.2,0-0.4,0.1-0.4,0.3l0.3,0l-0.3,0l-0.2,1.4h-0.7L89,8.7c0-0.2-0.1-0.5-0.4-0.5h-1.2c-0.2,0-0.4,0.1-0.4,0.3l-0.2,1.4h-0.6
	c-0.2,0-0.4,0.1-0.4,0.3l-0.2,1.2c0,0.2,0.1,0.5,0.4,0.5h0.5l-0.1,0.6h-0.6c-0.2,0-0.4,0.1-0.4,0.3l-0.2,1.2c0,0.2,0.1,0.5,0.4,0.5
	H86l-0.2,1.3c0,0.2,0.1,0.5,0.4,0.5h1.2c0.2,0,0.4-0.1,0.4-0.3l0.2-1.4h0.7L88.4,15.8z M89,12.5h-0.7l0.1-0.6h0.7L89,12.5z
	 M97.5,8.6c0-0.2-0.2-0.4-0.4-0.4h-1.7c-0.1,0-0.1,0-0.2,0.1l-1.8,1.1c-0.1,0.1-0.2,0.2-0.2,0.3v1.4c0,0.3,0.3,0.5,0.6,0.3l1.1-0.7
	v5.1c0,0.2,0.2,0.4,0.4,0.4h1.8c0.2,0,0.4-0.2,0.4-0.4V8.6z"/>
<path class="st41" d="M75,42.5c0,0,0-2,1.6-1.8"/>
<path class="st41" d="M51.7,41.7c0,0,1.6-1.4,2.7,0.3"/>
<path class="st45" d="M50.9,60.1c0,0,7,12.6,8,17.4"/>
<path class="st45" d="M77.3,59.3c0,0-3.4,13.8-4.3,18.2"/>
<path class="st46" d="M81,66.1c0,0,0.2,7.2,0.6,10.4"/>
<path class="st46" d="M47.6,66.6c0,0,1.6,8.7,1.4,10.9"/>
<path class="st46" d="M40,91.8c0,0,5.9,0.8,8.4,1.7"/>
<path class="st46" d="M86.2,95.2c0,0,2.5-1.2,5.1-2.6"/>
<path class="st40" d="M64.2,90.4l-0.6,1v-2.4l5.7-2.8L64.2,90.4z"/>
<path class="st36" d="M66.1,62.4l1.3-1.8c0,0,0.8,1.3,1,1.3c0.2-0.1,1-0.6,1.7-4.9c0,0-0.7,5.8-1.6,5.3c-0.4-0.2-0.8-0.3-1.2-0.3
	C66.9,62.1,66.5,62.2,66.1,62.4z"/>
<path class="st47" d="M64.6,61.5c0,0-0.6,1.6-0.7,1.6c-0.1,0-0.3-0.3-0.3-0.3l0.6-2L64.6,61.5z"/>
<path class="st48" d="M65,63.4c0.1-0.4,0.1-0.7,0.1-0.8c-0.1,0-0.1-0.1-0.2-0.1c-0.3-0.2-0.5-0.5-0.7-0.8L64,61.5l1.1-4.2l0.3,0.1
	l0.1,0.1l0.1,0l0.1-0.1c0.4,1,1.9,3.5,1.9,3.5s-0.1,0.2-0.2,0.4c-0.2,0.4-0.5,0.9-0.7,1.3c0,0,0,0,0,0c0,0,0,0.1,0,0.1
	c0.6,2,2.1,12.9,2.1,12.9l-5.1,0C63.8,73.2,64.6,66,65,63.4z"/>
<path class="st49" d="M65,63.4c0.1-0.4,0.1-0.7,0.1-0.8c-0.1,0-0.1-0.1-0.2-0.1c0.6,0.1,1.2,0.2,1.8,0.3c0,0,0,0.1,0,0.1
	C66.3,63,65.4,63.3,65,63.4z"/>
<path class="st50" d="M59.3,57c0,0,0.5,2.7,4.2,5.8"/>
<path class="st49" d="M67.6,61c0,0-0.1,0.2-0.2,0.4l-1.8-3.9l0.1,0l0.1-0.1C66.1,58.4,67.6,61,67.6,61z"/>
<ellipse class="st24" cx="19.3" cy="70.5" rx="10.9" ry="10.8"/>
<path class="st51" d="M13.3,66.1h11.6c0.5,0,0.9,0.4,0.9,0.8v6.6c0,0.4-0.4,0.8-0.9,0.8H13.3c-0.5,0-0.9-0.4-0.9-0.8V67
	C12.4,66.5,12.8,66.1,13.3,66.1z"/>
<path class="st52" d="M14.7,70.3l-0.6,0c-0.2,0-0.4,0.2-0.4,0.4l0,2.5c0,0.2,0.2,0.4,0.4,0.4l0.6,0c0.2,0,0.4-0.2,0.4-0.4l0-2.5
	C15.1,70.4,14.9,70.3,14.7,70.3z"/>
<path class="st52" d="M17,69.5l-0.6,0c-0.2,0-0.4,0.2-0.4,0.4l0,3.3c0,0.2,0.2,0.4,0.4,0.4l0.6,0c0.2,0,0.4-0.2,0.4-0.4l0-3.3
	C17.4,69.6,17.2,69.5,17,69.5z"/>
<path class="st52" d="M19.4,68.9l-0.6,0c-0.2,0-0.4,0.2-0.4,0.4l0,3.9c0,0.2,0.2,0.4,0.4,0.4l0.6,0c0.2,0,0.4-0.2,0.4-0.4l0-3.9
	C19.8,69,19.6,68.9,19.4,68.9z"/>
<path class="st52" d="M21.7,71.2l-0.5,0c-0.2,0-0.4,0.2-0.4,0.4l0,1.5c0,0.2,0.2,0.4,0.4,0.4l0.5,0c0.2,0,0.4-0.2,0.4-0.4l0-1.5
	C22.1,71.4,21.9,71.2,21.7,71.2z"/>
<path class="st52" d="M24.2,67.5l-0.6,0c-0.2,0-0.4,0.1-0.4,0.4l0,5.3c0,0.2,0.2,0.4,0.4,0.4l0.6,0c0.2,0,0.4-0.1,0.4-0.4l0-5.3
	C24.5,67.7,24.3,67.5,24.2,67.5z"/>
<path class="st53" d="M14.2,9.7v7.9l1.6-1.3l1.6,1.3V9.7H14.2z"/>
<path class="st54" d="M14.2,13.9c0.1,0.1,0.2,0.1,0.3,0.2c0.4,0.1,0.9-0.2,1.3-0.2c0.4,0,0.9,0.3,1.3,0.2c0.1,0,0.2-0.1,0.3-0.2
	v-3.7h-3.2L14.2,13.9z"/>
<path class="st53" d="M19.4,10.1c0,0.4-0.4,0.7-0.5,1c-0.1,0.4,0,0.8-0.2,1.1c-0.2,0.3-0.7,0.3-1,0.5c-0.3,0.2-0.4,0.7-0.8,0.8
	c-0.3,0.1-0.7-0.2-1.1-0.2c-0.4,0-0.8,0.3-1.1,0.2c-0.3-0.1-0.5-0.6-0.8-0.8c-0.3-0.2-0.8-0.2-1-0.5c-0.2-0.3-0.1-0.8-0.2-1.1
	c-0.1-0.3-0.5-0.6-0.5-1s0.4-0.7,0.5-1c0.1-0.4,0-0.8,0.2-1.1c0.2-0.3,0.7-0.3,1-0.5c0.3-0.2,0.4-0.7,0.8-0.8
	c0.3-0.1,0.7,0.2,1.1,0.2c0.4,0,0.8-0.3,1.1-0.2c0.3,0.1,0.5,0.6,0.8,0.8c0.3,0.2,0.8,0.2,1,0.5c0.2,0.3,0.1,0.8,0.2,1.1
	C19,9.4,19.4,9.7,19.4,10.1z"/>
<path class="st27" d="M15.8,12.7c1.4,0,2.6-1.2,2.6-2.7c0-1.5-1.2-2.7-2.6-2.7c-1.4,0-2.6,1.2-2.6,2.7
	C13.2,11.6,14.3,12.7,15.8,12.7z"/>
<path class="st53" d="M15.8,12.2c1.2,0,2.1-1,2.1-2.2c0-1.2-0.9-2.2-2.1-2.2s-2.1,1-2.1,2.2S14.6,12.2,15.8,12.2z"/>
<ellipse class="st55" cx="66.7" cy="89.6" rx="2.5" ry="2.5"/>
<path class="st53" d="M40.8,60.4c0,0-1.2,0.2-1.2-1.2c0,0,0,1.2-1.1,1.2c0,0,0.9,0.1,1.1,1.2C39.6,61.6,39.4,60.6,40.8,60.4z"/>
<path class="st53" d="M95.7,75.3c0,0,1.2-0.2,1.2,1.2c0,0,0-1.2,1.1-1.2c0,0-0.9-0.1-1.1-1.2C96.8,74.1,97.1,75,95.7,75.3z"/>
<path class="st53" d="M45.7,55.9c0,0-1.8,0.3-1.8-1.7c0,0,0,1.7-1.6,1.7c0,0,1.3,0.1,1.6,1.7C43.9,57.6,43.6,56.3,45.7,55.9z"/>
<path class="st53" d="M98.5,80.6c0,0,1.8-0.3,1.8,1.7c0,0,0-1.7,1.6-1.7c0,0-1.3-0.1-1.6-1.7C100.3,78.8,100.6,80.2,98.5,80.6z"/>
<rect x="26.9" y="9" class="st56" width="17.6" height="1.5"/>
<text transform="matrix(1 0 0 1 26.8742 9.9537)"><tspan x="0" y="0" class="st29 st57 st58">INTERN</tspan><tspan x="5" y="0" class="st59 st57 st58">SHALA</tspan><tspan x="9.7" y="0" class="st60 st58"> </tspan><tspan x="10" y="0" class="st59 st60 st58">TRAININGS</tspan></text>
</svg>
